<svg width="128" height="128" viewBox="0 0 128 128" fill="none" xmlns="http://www.w3.org/2000/svg">
<g clip-path="url(#clip0_5899_13053)">
<path d="M118.545 53.6058C120.191 51.5131 121.499 49.0334 122.214 46.2613C124.997 35.5105 118.572 24.6046 107.82 21.8295C101.494 20.1946 95.1109 21.7438 90.3717 25.4932C88.0313 19.9189 83.2081 15.4724 76.8747 13.8356C70.5489 12.2007 64.1661 13.7499 59.4269 17.4993C57.0884 11.9175 52.2652 7.47099 45.9318 5.8342C35.1791 3.05917 24.2826 9.47811 21.5001 20.2289C20.7757 23.0384 20.7271 25.8436 21.1026 28.4145C19.5567 30.4533 18.234 32.8658 17.4909 35.7181C16.7666 38.5275 16.7179 41.3327 17.0934 43.9037C15.5476 45.9424 14.2249 48.3549 13.4818 51.2073C11.8431 57.5481 13.4073 63.9346 17.1622 68.6832C11.5879 71.0235 7.12273 75.8579 5.48406 82.1987C2.70156 92.9495 9.12608 103.855 19.8788 106.63C26.2047 108.265 32.5875 106.716 37.3266 102.967C39.6595 108.539 44.4902 112.988 50.8161 114.623C57.142 116.257 63.5248 114.708 68.264 110.959C70.5969 116.531 75.4276 120.98 81.7534 122.615C92.5117 125.399 103.41 118.973 106.185 108.22C107.824 101.879 106.26 95.4925 102.505 90.7439C108.092 88.4148 112.557 83.5804 114.196 77.2396C114.924 74.4153 114.943 71.666 114.528 69.0931C116.175 67.0004 117.483 64.5207 118.198 61.7486C118.926 58.9242 118.944 56.1749 118.53 53.6021L118.545 53.6058ZM31.9413 22.8857L31.9131 22.9977C31.9131 22.9977 31.9244 22.9529 31.93 22.9305C31.9338 22.9156 31.9376 22.9007 31.9413 22.8857Z" fill="#0064FF"/>
<path d="M38.3309 24.5845C37.964 26.0079 38.8271 27.4636 40.2411 27.8361C41.6645 28.2029 43.1203 27.3399 43.4927 25.9258C43.8596 24.5025 42.9965 23.0467 41.5825 22.6743C40.1591 22.3074 38.7034 23.1705 38.3309 24.5845ZM34.3292 40.0755C33.9624 41.4989 34.8254 42.9546 36.2395 43.3271C37.6628 43.694 39.1186 42.8309 39.491 41.4169C39.8579 39.9935 38.9948 38.5378 37.5808 38.1653C36.1574 37.7984 34.7017 38.6615 34.3292 40.0755ZM30.3276 55.5666C29.9607 56.99 30.8238 58.4457 32.2378 58.8182C33.6612 59.185 35.1169 58.322 35.4894 56.9079C35.8562 55.4846 34.9932 54.0288 33.5791 53.6563C32.1558 53.2895 30.7 54.1525 30.3276 55.5666ZM22.3168 86.5468C21.9499 87.9702 22.813 89.4259 24.227 89.7984C25.6504 90.1652 27.1061 89.3022 27.4786 87.8881C27.8455 86.4648 26.9824 85.009 25.5684 84.6366C24.145 84.2697 22.6892 85.1328 22.3168 86.5468ZM22.7128 37.0747C23.4447 34.2355 25.0211 31.8869 26.9121 29.8955C26.1857 27.3631 25.9826 24.423 26.7219 21.5856C28.7557 13.7095 36.7165 9.01849 44.5926 11.0523C52.4687 13.086 57.1597 21.0468 55.1259 28.9229C54.3941 31.7622 52.7857 34.2376 50.7998 36.0701C51.6211 38.7614 51.8561 41.5747 51.1243 44.414C50.3924 47.2532 48.784 49.7286 46.7981 51.5612C47.6194 54.2525 47.8545 57.0657 47.1226 59.905C45.0888 67.7811 37.1281 72.4721 29.2519 70.4383C21.3758 68.4046 16.6848 60.4438 18.7186 52.5677C19.4505 49.7284 21.0269 47.3799 22.9179 45.3885C22.1915 42.856 21.9884 39.9159 22.7277 37.0785L22.7128 37.0747ZM10.7004 83.546C12.7341 75.6699 20.6949 70.9789 28.571 73.0127C36.4471 75.0464 41.1381 83.0072 39.1043 90.8833C37.0706 98.7595 29.1098 103.45 21.2337 101.417C13.3576 99.3829 8.66659 91.4221 10.7004 83.546ZM69.2757 32.5784C68.9088 34.0018 69.7719 35.4575 71.1859 35.83C72.6093 36.1969 74.065 35.3338 74.4375 33.9198C74.8044 32.4964 73.9413 31.0406 72.5273 30.6682C71.1039 30.3013 69.6481 31.1644 69.2757 32.5784ZM65.274 48.0695C64.9072 49.4928 65.7702 50.9486 67.1843 51.321C68.6076 51.6879 70.0634 50.8248 70.4358 49.4108C70.8027 47.9874 69.9396 46.5317 68.5256 46.1592C67.1022 45.7924 65.6465 46.6554 65.274 48.0695ZM61.2724 63.5605C60.9055 64.9839 61.7686 66.4396 63.1826 66.8121C64.606 67.179 66.0617 66.3159 66.4342 64.9019C66.8066 63.4878 65.938 62.0227 64.5239 61.6503C63.1006 61.2834 61.6448 62.1465 61.2724 63.5605ZM53.2616 94.5407C52.8947 95.9641 53.7578 97.4198 55.1718 97.7923C56.5952 98.1592 58.0509 97.2961 58.4234 95.8821C58.7902 94.4587 57.9272 93.0029 56.5131 92.6305C55.0898 92.2636 53.634 93.1267 53.2616 94.5407ZM53.6501 45.0668C54.382 42.2275 55.9584 39.879 57.8495 37.8876C57.123 35.3551 56.9199 32.415 57.6593 29.5776C59.693 21.7015 67.6538 17.0105 75.5299 19.0443C83.406 21.0781 88.097 29.0388 86.0633 36.915C85.3314 39.7542 83.723 42.2296 81.7371 44.0622C82.5584 46.7535 82.7935 49.5667 82.0616 52.406C81.3297 55.2453 79.7214 57.7207 77.7354 59.5532C78.5568 62.2445 78.7918 65.0578 78.0599 67.8971C76.0262 75.7732 68.0654 80.4641 60.1893 78.4304C52.3132 76.3966 47.6222 68.4358 49.6559 60.5597C50.3878 57.7204 51.9642 55.3719 53.8553 53.3805C53.1288 50.8481 52.9257 47.908 53.6651 45.0706L53.6501 45.0668ZM41.6377 91.5381C43.6714 83.6619 51.6322 78.971 59.5083 81.0047C67.3844 83.0385 72.0754 90.9993 70.0417 98.8754C68.0079 106.751 60.0471 111.442 52.171 109.409C44.2949 107.375 39.6039 99.4142 41.6377 91.5381ZM100.219 40.5798C99.8517 42.0032 100.715 43.4589 102.129 43.8314C103.552 44.1982 105.008 43.3352 105.38 41.9211C105.747 40.4978 104.884 39.042 103.47 38.6696C102.047 38.3027 100.591 39.1658 100.219 40.5798ZM96.2169 56.0708C95.8501 57.4942 96.7131 58.95 98.1272 59.3224C99.5505 59.6893 101.006 58.8262 101.379 57.4122C101.751 55.9982 100.883 54.5331 99.4685 54.1606C98.0545 53.7882 96.5894 54.6568 96.2169 56.0708ZM92.2153 71.5619C91.8484 72.9853 92.7115 74.441 94.1255 74.8135C95.5489 75.1803 97.0046 74.3173 97.3771 72.9032C97.7495 71.4892 96.8809 70.0241 95.4668 69.6517C94.0435 69.2848 92.5877 70.1479 92.2153 71.5619ZM84.2119 102.544C83.8451 103.967 84.7081 105.423 86.1222 105.796C87.5455 106.162 89.0013 105.299 89.3737 103.885C89.7406 102.462 88.8794 100.999 87.4635 100.634C86.0401 100.267 84.5844 101.13 84.2119 102.544ZM84.6005 53.0701C85.3324 50.2308 86.9088 47.8822 88.7998 45.8908C88.0734 43.3584 87.8703 40.4183 88.6096 37.5809C90.6434 29.7048 98.6042 25.0138 106.48 27.0476C114.356 29.0813 119.047 37.0421 117.014 44.9182C116.282 47.7575 114.673 50.2329 112.687 52.0655C113.509 54.7567 113.744 57.57 113.012 60.4093C112.28 63.2486 110.672 65.724 108.686 67.5565C109.507 70.2478 109.742 73.061 109.01 75.9003C106.977 83.7764 99.0157 88.4674 91.1396 86.4337C83.2635 84.3999 78.5725 76.4391 80.6063 68.563C81.3382 65.7237 82.9146 63.3752 84.8056 61.3838C84.0791 58.8513 83.8761 55.9112 84.6154 53.0738L84.6005 53.0701ZM72.5881 99.5413C74.6218 91.6652 82.5826 86.9742 90.4587 89.008C98.3348 91.0418 103.026 99.0025 100.992 106.879C98.9583 114.755 90.9975 119.446 83.1214 117.412C75.2453 115.378 70.5543 107.417 72.5881 99.5413Z" fill="black"/>
<path d="M38.3309 24.5845C37.964 26.0079 38.8271 27.4636 40.2411 27.8361C41.6645 28.2029 43.1203 27.3399 43.4927 25.9258C43.8596 24.5025 42.9965 23.0467 41.5825 22.6743C40.1591 22.3074 38.7034 23.1705 38.3309 24.5845ZM34.3292 40.0755C33.9624 41.4989 34.8254 42.9546 36.2395 43.3271C37.6628 43.694 39.1186 42.8309 39.491 41.4169C39.8579 39.9935 38.9948 38.5378 37.5808 38.1653C36.1574 37.7984 34.7017 38.6615 34.3292 40.0755ZM30.3276 55.5666C29.9607 56.99 30.8238 58.4457 32.2378 58.8182C33.6612 59.185 35.1169 58.322 35.4894 56.9079C35.8562 55.4846 34.9932 54.0288 33.5791 53.6563C32.1558 53.2895 30.7 54.1525 30.3276 55.5666ZM22.3168 86.5468C21.9499 87.9702 22.813 89.4259 24.227 89.7984C25.6504 90.1652 27.1061 89.3022 27.4786 87.8881C27.8455 86.4648 26.9824 85.009 25.5684 84.6366C24.145 84.2697 22.6892 85.1328 22.3168 86.5468ZM22.7128 37.0747C23.4447 34.2355 25.0211 31.8869 26.9121 29.8955C26.1857 27.3631 25.9826 24.423 26.7219 21.5856C28.7557 13.7095 36.7165 9.01849 44.5926 11.0523C52.4687 13.086 57.1597 21.0468 55.1259 28.9229C54.3941 31.7622 52.7857 34.2376 50.7998 36.0701C51.6211 38.7614 51.8561 41.5747 51.1243 44.414C50.3924 47.2532 48.784 49.7286 46.7981 51.5612C47.6194 54.2525 47.8545 57.0657 47.1226 59.905C45.0888 67.7811 37.1281 72.4721 29.2519 70.4383C21.3758 68.4046 16.6848 60.4438 18.7186 52.5677C19.4505 49.7284 21.0269 47.3799 22.9179 45.3885C22.1915 42.856 21.9884 39.9159 22.7277 37.0785L22.7128 37.0747ZM10.7004 83.546C12.7341 75.6699 20.6949 70.9789 28.571 73.0127C36.4471 75.0464 41.1381 83.0072 39.1043 90.8833C37.0706 98.7595 29.1098 103.45 21.2337 101.417C13.3576 99.3829 8.66659 91.4221 10.7004 83.546ZM69.2757 32.5784C68.9088 34.0018 69.7719 35.4575 71.1859 35.83C72.6093 36.1969 74.065 35.3338 74.4375 33.9198C74.8044 32.4964 73.9413 31.0406 72.5273 30.6682C71.1039 30.3013 69.6481 31.1644 69.2757 32.5784ZM65.274 48.0695C64.9072 49.4928 65.7702 50.9486 67.1843 51.321C68.6076 51.6879 70.0634 50.8248 70.4358 49.4108C70.8027 47.9874 69.9396 46.5317 68.5256 46.1592C67.1022 45.7924 65.6465 46.6554 65.274 48.0695ZM61.2724 63.5605C60.9055 64.9839 61.7686 66.4396 63.1826 66.8121C64.606 67.179 66.0617 66.3159 66.4342 64.9019C66.8066 63.4878 65.938 62.0227 64.5239 61.6503C63.1006 61.2834 61.6448 62.1465 61.2724 63.5605ZM53.2616 94.5407C52.8947 95.9641 53.7578 97.4198 55.1718 97.7923C56.5952 98.1592 58.0509 97.2961 58.4234 95.8821C58.7902 94.4587 57.9272 93.0029 56.5131 92.6305C55.0898 92.2636 53.634 93.1267 53.2616 94.5407ZM53.6501 45.0668C54.382 42.2275 55.9584 39.879 57.8495 37.8876C57.123 35.3551 56.9199 32.415 57.6593 29.5776C59.693 21.7015 67.6538 17.0105 75.5299 19.0443C83.406 21.0781 88.097 29.0388 86.0633 36.915C85.3314 39.7542 83.723 42.2296 81.7371 44.0622C82.5584 46.7535 82.7935 49.5667 82.0616 52.406C81.3297 55.2453 79.7214 57.7207 77.7354 59.5532C78.5568 62.2445 78.7918 65.0578 78.0599 67.8971C76.0262 75.7732 68.0654 80.4641 60.1893 78.4304C52.3132 76.3966 47.6222 68.4358 49.6559 60.5597C50.3878 57.7204 51.9642 55.3719 53.8553 53.3805C53.1288 50.8481 52.9257 47.908 53.6651 45.0706L53.6501 45.0668ZM41.6377 91.5381C43.6714 83.6619 51.6322 78.971 59.5083 81.0047C67.3844 83.0385 72.0754 90.9993 70.0417 98.8754C68.0079 106.751 60.0471 111.442 52.171 109.409C44.2949 107.375 39.6039 99.4142 41.6377 91.5381ZM100.219 40.5798C99.8517 42.0032 100.715 43.4589 102.129 43.8314C103.552 44.1982 105.008 43.3352 105.38 41.9211C105.747 40.4978 104.884 39.042 103.47 38.6696C102.047 38.3027 100.591 39.1658 100.219 40.5798ZM96.2169 56.0708C95.8501 57.4942 96.7131 58.95 98.1272 59.3224C99.5505 59.6893 101.006 58.8262 101.379 57.4122C101.751 55.9982 100.883 54.5331 99.4685 54.1606C98.0545 53.7882 96.5894 54.6568 96.2169 56.0708ZM92.2153 71.5619C91.8484 72.9853 92.7115 74.441 94.1255 74.8135C95.5489 75.1803 97.0046 74.3173 97.3771 72.9032C97.7495 71.4892 96.8809 70.0241 95.4668 69.6517C94.0435 69.2848 92.5877 70.1479 92.2153 71.5619ZM84.2119 102.544C83.8451 103.967 84.7081 105.423 86.1222 105.796C87.5455 106.162 89.0013 105.299 89.3737 103.885C89.7406 102.462 88.8794 100.999 87.4635 100.634C86.0401 100.267 84.5844 101.13 84.2119 102.544ZM84.6005 53.0701C85.3324 50.2308 86.9088 47.8822 88.7998 45.8908C88.0734 43.3584 87.8703 40.4183 88.6096 37.5809C90.6434 29.7048 98.6042 25.0138 106.48 27.0476C114.356 29.0813 119.047 37.0421 117.014 44.9182C116.282 47.7575 114.673 50.2329 112.687 52.0655C113.509 54.7567 113.744 57.57 113.012 60.4093C112.28 63.2486 110.672 65.724 108.686 67.5565C109.507 70.2478 109.742 73.061 109.01 75.9003C106.977 83.7764 99.0157 88.4674 91.1396 86.4337C83.2635 84.3999 78.5725 76.4391 80.6063 68.563C81.3382 65.7237 82.9146 63.3752 84.8056 61.3838C84.0791 58.8513 83.8761 55.9112 84.6154 53.0738L84.6005 53.0701ZM72.5881 99.5413C74.6218 91.6652 82.5826 86.9742 90.4587 89.008C98.3348 91.0418 103.026 99.0025 100.992 106.879C98.9583 114.755 90.9975 119.446 83.1214 117.412C75.2453 115.378 70.5543 107.417 72.5881 99.5413Z" fill="black" fill-opacity="0.2"/>
</g>
<defs>
<clipPath id="clip0_5899_13053">
<rect width="104.399" height="104.484" fill="white" transform="translate(26.0083 0.810547) rotate(14.1534)"/>
</clipPath>
</defs>
</svg>
