<svg width="145" height="148" viewBox="0 0 145 148" fill="none" xmlns="http://www.w3.org/2000/svg">
<path d="M19.1303 56.6836L19.1689 56.5779C20.2652 53.6408 22.0222 51.1684 24.4001 49.2261C26.7599 47.3332 29.4418 46.1326 32.4035 45.6091C35.3518 45.0568 38.381 45.3324 41.3322 46.4339C44.286 47.5283 46.7532 49.2994 48.6667 51.6907C50.3499 53.7504 51.5213 56.1183 52.1312 58.7123C53.4737 60.5678 54.4303 62.6496 54.9669 64.8975C55.4485 65.5683 55.8724 66.266 56.2508 66.9791C56.6076 66.1113 57.0271 65.2904 57.5048 64.5067C57.6857 63.399 57.9825 62.3018 58.3812 61.2098C58.7799 60.1178 59.281 59.0951 59.8705 58.1367C60.0488 57.036 60.3604 55.9202 60.7469 54.8397C61.1456 53.7477 61.6467 52.7251 62.2362 51.7666C62.4144 50.666 62.7138 49.5617 63.1125 48.4697C63.5112 47.3777 64.0123 46.3551 64.6018 45.3966C64.7827 44.2889 65.0769 43.1987 65.4782 42.0997C65.8769 41.0077 66.378 39.985 66.9675 39.0266C67.1483 37.9189 67.4451 36.8217 67.8438 35.7297C68.2425 34.6377 68.7437 33.615 69.3331 32.6565C69.5114 31.5559 69.8134 30.4446 70.2095 29.3596C71.3058 26.4225 73.0628 23.9501 75.4407 22.0078C77.7883 20.1264 80.4324 18.92 83.3377 18.3759C86.4379 17.8231 89.4549 18.1103 92.3875 19.197C95.3414 20.2914 97.8086 22.0625 99.722 24.4538C101.586 26.7393 102.825 29.4033 103.364 32.3227C103.908 35.4036 103.598 38.3962 102.532 41.3603C102.133 42.4523 101.632 43.475 101.042 44.4335C100.861 45.5411 100.558 46.6358 100.163 47.7374C99.7647 48.8294 99.2636 49.8521 98.6741 50.8105C98.4933 51.9182 98.1894 53.0129 97.7952 54.1145C97.3965 55.2065 96.8953 56.2291 96.3059 57.1876C96.125 58.2953 95.8308 59.3855 95.4295 60.4845C95.0308 61.5765 94.5297 62.5992 93.9402 63.5576C93.7594 64.6653 93.4504 65.7741 93.0613 66.8616C92.6626 67.9536 92.1615 68.9762 91.572 69.9347C91.3886 71.0494 91.0943 72.1396 90.693 73.2387C90.2944 74.3307 89.7932 75.3533 89.2038 76.3118C89.0597 77.2093 88.8375 78.1023 88.5467 78.9862C89.3218 78.6783 90.1192 78.4185 90.9339 78.221C92.8227 76.8746 94.8853 75.927 97.114 75.3994C99.2645 73.8611 101.64 72.8441 104.218 72.3643C107.299 71.8204 110.319 72.1005 113.256 73.1969C116.21 74.2913 118.677 76.0624 120.59 78.4537C122.455 80.7392 123.694 83.4032 124.233 86.3226C124.773 89.3702 124.498 92.3519 123.439 95.2545C123.426 95.2898 123.413 95.325 123.4 95.3602C122.306 98.314 120.534 100.781 118.143 102.695C116.108 104.355 113.752 105.515 111.175 106.123C109.348 107.452 107.302 108.398 105.076 108.942C103.212 110.306 101.116 111.281 98.8416 111.824C96.9521 113.194 94.8203 114.156 92.5039 114.683C90.7075 115.952 88.7007 116.856 86.5291 117.38C84.739 118.675 82.7386 119.605 80.5689 120.147C78.655 121.54 76.511 122.513 74.1824 123.052C72.3321 124.381 70.2483 125.321 67.9889 125.845C65.8891 127.354 63.4856 128.361 60.8719 128.828C57.9236 129.38 54.9015 129.107 51.9432 128.003C49.0035 126.914 46.5337 125.15 44.5914 122.772C42.953 120.721 41.8289 118.442 41.2164 115.943C39.8552 114.072 38.898 112.014 38.3511 109.795C36.9484 107.885 35.958 105.743 35.4048 103.409C34.1231 101.584 33.219 99.5772 32.7034 97.4248C31.3999 95.6155 30.481 93.6273 29.9392 91.4812C28.5294 89.5693 27.5524 87.456 27.0049 85.1723C25.64 83.2687 24.6931 81.1824 24.1642 78.9134C22.8294 77.0367 21.9029 74.9819 21.3778 72.7462C19.8293 70.6238 18.795 68.1863 18.3268 65.5322C17.7809 62.6103 18.0411 59.6233 19.106 56.7066L19.1303 56.6836Z" fill="#0064FF"/>
<path d="M80.0758 52.2845C82.0081 53.006 83.9391 53.184 85.8689 52.8187C87.8385 52.4759 89.5959 51.6644 91.1431 50.4009C92.6774 49.1726 93.804 47.5959 94.5254 45.6636C95.2469 43.7314 95.4301 41.7862 95.0802 39.8141C94.7246 37.8798 93.9053 36.1435 92.6444 34.5893C91.4161 33.055 89.8394 31.9284 87.9071 31.2069C85.9748 30.4855 84.0297 30.3022 82.0576 30.6521C80.1207 31.0148 78.3947 31.8059 76.8604 33.0341C75.3133 34.2977 74.1789 35.8955 73.4601 37.8208C72.7386 39.753 72.5605 41.6841 72.9258 43.6139C73.2686 45.5834 74.059 47.3331 75.2873 48.8675C76.5508 50.4146 78.1487 51.549 80.0739 52.2678L80.0758 52.2845ZM77.7102 58.6545C75.7779 57.9331 74.187 56.8013 72.9235 55.2542C71.6952 53.7198 70.9049 51.9701 70.5621 50.0006C70.2064 48.0663 70.3845 46.1352 71.0963 44.2075C71.8178 42.2752 72.9495 40.6843 74.4967 39.4208C76.031 38.1925 77.7666 37.397 79.7009 37.0414C81.6704 36.6986 83.6155 36.8818 85.5504 37.5962C87.4826 38.3176 89.062 39.4372 90.2877 40.9786C91.5512 42.5257 92.3608 44.2665 92.7235 46.2034C93.0663 48.1729 92.8831 50.118 92.1687 52.0529C91.4473 53.9852 90.3207 55.5619 88.7863 56.7902C87.2392 58.0537 85.4773 58.8556 83.5122 59.208C81.5754 59.5707 79.6469 59.3856 77.7191 58.6738L77.7102 58.6545ZM75.3445 65.0246C77.2768 65.746 79.2078 65.9241 81.1376 65.5588C83.1072 65.216 84.8646 64.4045 86.4117 63.141C87.9461 61.9127 89.0727 60.3359 89.7941 58.4037C90.5156 56.4714 90.6988 54.5263 90.3489 52.5542C89.9862 50.6173 89.174 48.8836 87.9131 47.3294C86.6848 45.795 85.108 44.6684 83.1758 43.947C81.2435 43.2255 79.2984 43.0423 77.3263 43.3922C75.3894 43.7549 73.6634 44.5459 72.1221 45.7716C70.5749 47.0351 69.4406 48.633 68.7217 50.5582C68.0002 52.4905 67.8222 54.4216 68.1875 56.3514C68.5303 58.3209 69.3206 60.0706 70.5489 61.6049C71.8124 63.1521 73.4103 64.2864 75.3355 65.0053L75.3445 65.0246ZM68.2379 84.1391C66.3056 83.4177 64.7148 82.2859 63.4513 80.7387C62.223 79.2044 61.4326 77.4547 61.0898 75.4852C60.7271 73.5483 60.9122 71.6198 61.624 69.692C62.3455 67.7598 63.4772 66.1689 65.0244 64.9054C66.5587 63.6771 68.2943 62.8816 70.2216 62.5234C72.1911 62.1806 74.1363 62.3638 76.0711 63.0782C78.0034 63.7997 79.5801 64.9263 80.8084 66.4606C82.0719 68.0078 82.8815 69.7485 83.2442 71.6854C83.587 73.6549 83.4038 75.6001 82.6894 77.5349C81.968 79.4672 80.8414 81.0439 79.307 82.2722C77.7599 83.5357 75.998 84.3376 74.0329 84.69C72.0961 85.0527 70.1676 84.8676 68.2398 84.1558L68.2379 84.1391ZM65.8722 90.5092C67.8045 91.2306 69.7355 91.4087 71.6654 91.0434C73.6349 90.7006 75.3923 89.8891 76.9395 88.6256C78.4738 87.3973 79.6004 85.8205 80.3219 83.8883C81.0433 81.956 81.2265 80.0109 80.8767 78.0388C80.5139 76.1019 79.7018 74.3682 78.4408 72.8139C77.2125 71.2796 75.6358 70.153 73.7035 69.4316C71.7713 68.7101 69.8261 68.5269 67.854 68.8767C65.9171 69.2395 64.1912 70.0305 62.6498 71.2562C61.1026 72.5197 59.9683 74.1176 59.2494 76.0428C58.528 77.9751 58.3499 79.9062 58.7152 81.836C59.058 83.8055 59.8484 85.5552 61.0767 87.0895C62.3402 88.6367 63.9381 89.771 65.8633 90.4899L65.8722 90.5092ZM72.9788 71.3946C71.0466 70.6731 69.4557 69.5414 68.1922 67.9942C66.9639 66.4599 66.1736 64.7102 65.8307 62.7407C65.468 60.8038 65.6531 58.8753 66.365 56.9475C67.0864 55.0152 68.2182 53.4244 69.7653 52.1609C71.2997 50.9326 73.0353 50.1371 74.9696 49.7814C76.9391 49.4386 78.8842 49.6218 80.8191 50.3362C82.7513 51.0577 84.3281 52.1843 85.5564 53.7186C86.8199 55.2658 87.6295 57.0065 87.9922 58.9434C88.3376 60.9059 88.1518 62.8581 87.4374 64.7929C86.7159 66.7252 85.5893 68.302 84.055 69.5302C82.5079 70.7938 80.746 71.5956 78.7809 71.9481C76.8466 72.3037 74.9156 72.1257 72.9878 71.4138L72.9788 71.3946ZM70.6132 77.7646C72.5454 78.4861 74.4765 78.6642 76.4063 78.2989C78.3758 77.956 80.1332 77.1446 81.6804 75.881C83.2147 74.6528 84.3413 73.076 85.0628 71.1437C85.7842 69.2115 85.9675 67.2663 85.6176 65.2942C85.2619 63.3599 84.4427 61.6236 83.1818 60.0694C81.9535 58.5351 80.3767 57.4085 78.4445 56.687C76.5122 55.9656 74.5671 55.7824 72.595 56.1322C70.6581 56.4949 68.9321 57.286 67.3907 58.5117C65.8436 59.7752 64.7093 61.3731 63.9904 63.2983C63.2689 65.2306 63.0908 67.1616 63.4561 69.0915C63.799 71.061 64.5893 72.8107 65.8176 74.345C67.0811 75.8922 68.679 77.0265 70.6042 77.7454L70.6132 77.7646ZM58.7656 109.624C56.8334 108.902 55.2425 107.771 53.979 106.223C52.7507 104.689 51.9604 102.939 51.6176 100.97C51.2593 99.0425 51.44 97.1044 52.1518 95.1766C52.8732 93.2444 54.005 91.6535 55.5522 90.39C57.0865 89.1617 58.8221 88.3662 60.7493 88.008C62.7189 87.6652 64.664 87.8484 66.5988 88.5628C68.5311 89.2842 70.1078 90.4108 71.3361 91.9452C72.5996 93.4923 73.4092 95.2331 73.772 97.17C74.1148 99.1395 73.9316 101.085 73.2172 103.019C72.4957 104.952 71.3691 106.529 69.8348 107.757C68.2876 109.02 66.5257 109.822 64.5607 110.175C62.6264 110.53 60.6953 110.352 58.7675 109.64L58.7656 109.624ZM56.4 115.994C58.3323 116.715 60.2633 116.893 62.1931 116.528C64.1627 116.185 65.9201 115.374 67.4672 114.11C69.0016 112.882 70.1281 111.305 70.8496 109.373C71.571 107.441 71.7543 105.495 71.4044 103.523C71.0417 101.586 70.2295 99.8528 68.9686 98.2985C67.7403 96.7642 66.1635 95.6376 64.2313 94.9162C62.299 94.1947 60.3539 94.0115 58.3818 94.3613C56.4475 94.717 54.7189 95.5151 53.1776 96.7408C51.6304 98.0043 50.4961 99.6022 49.7772 101.527C49.0557 103.46 48.8777 105.391 49.243 107.321C49.5858 109.29 50.3761 111.04 51.6044 112.574C52.8679 114.121 54.4658 115.256 56.391 115.975L56.4 115.994ZM63.5066 96.8792C61.5743 96.1577 59.9835 95.026 58.72 93.4788C57.4917 91.9445 56.7013 90.1948 56.3585 88.2253C55.9932 86.2954 56.1809 84.3599 56.8927 82.4321C57.6142 80.4998 58.7459 78.909 60.2931 77.6455C61.8274 76.4172 63.563 75.6217 65.4973 75.266C67.4668 74.9232 69.412 75.1064 71.3468 75.8208C73.2791 76.5423 74.8558 77.6689 76.0841 79.2032C77.3476 80.7504 78.1572 82.4911 78.5199 84.428C78.8628 86.3976 78.6795 88.3427 77.9651 90.2775C77.2437 92.2098 76.1171 93.7865 74.5828 95.0148C73.0356 96.2783 71.2737 97.0802 69.3112 97.4256C67.3744 97.7883 65.4433 97.6103 63.5181 96.8914L63.5066 96.8792ZM61.1409 103.249C63.0732 103.971 65.0042 104.149 66.9341 103.783C68.9036 103.441 70.661 102.629 72.2082 101.366C73.7425 100.137 74.8691 98.5606 75.5905 96.6283C76.312 94.6961 76.4952 92.7509 76.1453 90.7788C75.7897 88.8445 74.9705 87.1082 73.7095 85.554C72.4812 84.0197 70.9045 82.8931 68.9722 82.1716C67.0399 81.4502 65.0948 81.2669 63.1227 81.6168C61.1858 81.9795 59.4599 82.7706 57.9185 83.9963C56.3713 85.2598 55.237 86.8577 54.5181 88.7829C53.7967 90.7152 53.6186 92.6462 53.9839 94.576C54.3267 96.5456 55.1171 98.2953 56.3454 99.8296C57.6089 101.377 59.2068 102.511 61.132 103.23L61.1409 103.249ZM54.0343 122.364C52.1021 121.642 50.5112 120.511 49.2477 118.963C48.0194 117.429 47.2291 115.679 46.8862 113.71C46.5209 111.78 46.7086 109.844 47.4205 107.917C48.1419 105.984 49.2737 104.394 50.8208 103.13C52.3552 101.902 54.0908 101.106 56.0251 100.751C57.9946 100.408 59.9397 100.591 61.8746 101.305C63.8068 102.027 65.3836 103.153 66.6119 104.688C67.8754 106.235 68.685 107.976 69.0503 109.906C69.3931 111.875 69.2099 113.82 68.4955 115.755C67.774 117.687 66.6474 119.264 65.1131 120.492C63.5659 121.756 61.804 122.558 59.839 122.91C57.9047 123.266 55.9736 123.088 54.0458 122.376L54.0343 122.364ZM31.4009 73.1328C29.4686 72.4113 27.8919 71.2847 26.6636 69.7504C25.4001 68.2032 24.5982 66.4413 24.2458 64.4763C23.883 62.5394 24.0682 60.6109 24.78 58.6831C25.5014 56.7509 26.6332 55.16 28.1804 53.8965C29.7147 52.6682 31.4644 51.8779 33.4339 51.535C35.3612 51.1768 37.2992 51.3575 39.227 52.0693C41.1593 52.7908 42.736 53.9174 43.9643 55.4517C45.2278 56.9989 46.0374 58.7396 46.4002 60.6765C46.75 62.6486 46.5598 64.5912 45.8454 66.526C45.1239 68.4583 43.9973 70.035 42.463 71.2633C40.9158 72.5268 39.161 73.3313 37.1889 73.6811C35.2591 74.0464 33.3235 73.8587 31.3957 73.1469L31.4009 73.1328ZM51.1717 116.209C53.1039 116.93 55.035 117.108 56.9648 116.743C58.9369 116.393 60.6917 115.589 62.2389 114.325C63.7732 113.097 64.8998 111.52 65.6213 109.588C66.3427 107.655 66.526 105.71 66.1761 103.738C65.8178 101.811 65.0012 100.068 63.7403 98.5134C62.512 96.9791 60.9352 95.8525 59.003 95.1311C57.0707 94.4096 55.1256 94.2264 53.1535 94.5762C51.2191 94.9319 49.4906 95.73 47.9492 96.9557C46.4021 98.2192 45.2678 99.8171 44.5489 101.742C43.8274 103.675 43.6493 105.606 44.0146 107.535C44.3575 109.505 45.1478 111.255 46.3761 112.789C47.6396 114.336 49.2375 115.471 51.1627 116.189L51.1717 116.209ZM48.291 110.103C46.3587 109.381 44.773 108.236 43.5224 106.653C42.2941 105.119 41.4986 103.383 41.1403 101.456C40.7847 99.5217 40.9557 97.588 41.6746 95.6628C42.396 93.7305 43.5278 92.1397 45.0749 90.8762C46.6093 89.6479 48.3449 88.8524 50.2792 88.4967C52.2513 88.1469 54.1964 88.3301 56.1287 89.0515C58.0609 89.773 59.6377 90.8996 60.866 92.4339C62.1295 93.9811 62.9391 95.7219 63.3018 97.6587C63.6472 99.6212 63.4614 101.573 62.747 103.508C62.0255 105.441 60.8989 107.017 59.3646 108.246C57.8303 109.474 56.0806 110.264 54.1111 110.607C52.1639 110.998 50.2252 110.841 48.2999 110.122L48.291 110.103ZM45.5546 103.93C47.4869 104.651 49.4179 104.829 51.3477 104.464C53.3173 104.121 55.0747 103.31 56.6219 102.046C58.1562 100.818 59.2828 99.2413 60.0042 97.3091C60.7257 95.3768 60.9089 93.4317 60.559 91.4596C60.1937 89.5297 59.3841 87.789 58.1232 86.2347C56.8949 84.7004 55.3182 83.5738 53.3859 82.8524C51.4536 82.1309 49.5085 81.9477 47.5364 82.2976C45.6066 82.6628 43.8735 83.4513 42.3392 84.6796C40.792 85.9431 39.6577 87.541 38.9388 89.4662C38.2174 91.3985 38.0393 93.3295 38.4046 95.2594C38.7474 97.2289 39.5378 98.9786 40.7661 100.513C42.0296 102.06 43.6275 103.194 45.5527 103.913L45.5546 103.93ZM42.7413 97.7928C40.809 97.0714 39.2181 95.9396 37.9546 94.3925C36.7263 92.8581 35.936 91.1084 35.5932 89.1389C35.2279 87.2091 35.4156 85.2736 36.1274 83.3458C36.8489 81.4135 37.9806 79.8227 39.5278 78.5591C41.0621 77.3309 42.7977 76.5354 44.732 76.1797C46.7015 75.8369 48.6467 76.0201 50.5815 76.7345C52.5138 77.456 54.0905 78.5826 55.3188 80.1169C56.5823 81.6641 57.3919 83.4048 57.7546 85.3417C58.1 87.3042 57.9142 89.2564 57.1998 91.1912C56.4784 93.1235 55.3518 94.7002 53.8175 95.9285C52.2703 97.192 50.5084 97.9939 48.5433 98.3463C46.609 98.702 44.6754 98.531 42.7502 97.8121L42.7413 97.7928ZM39.8606 91.687C41.7929 92.4085 43.7239 92.5866 45.6537 92.2213C47.6258 91.8714 49.3807 91.067 50.9278 89.8035C52.4622 88.5752 53.5888 86.9984 54.3102 85.0662C55.0317 83.1339 55.2149 81.1887 54.865 79.2166C54.5023 77.2798 53.6901 75.5461 52.4292 73.9918C51.2009 72.4575 49.6241 71.3309 47.6919 70.6095C45.7596 69.888 43.8145 69.7048 41.8424 70.0546C39.9151 70.4129 38.1795 71.2084 36.6452 72.4367C35.098 73.7002 33.9637 75.2981 33.2448 77.2233C32.5234 79.1556 32.3453 81.0866 32.7106 83.0164C33.0605 84.9886 33.8438 86.7357 35.0721 88.27C36.3356 89.8172 37.9335 90.9515 39.8587 91.6704L39.8606 91.687ZM37.0473 85.5499C35.115 84.8285 33.5241 83.6967 32.2606 82.1495C31.0323 80.6152 30.242 78.8655 29.8992 76.896C29.5435 74.9617 29.7145 73.0281 30.4334 71.1028C31.1548 69.1706 32.2866 67.5797 33.8338 66.3162C35.3809 65.0527 37.1217 64.2431 39.0586 63.8804C41.0152 63.5728 42.9552 63.7701 44.8875 64.4916C46.8197 65.213 48.4042 66.3185 49.6454 67.8176C50.9089 69.3648 51.7108 71.1267 52.0632 73.0917C52.406 75.0613 52.2228 77.0064 51.5084 78.9412C50.7869 80.8735 49.6603 82.4503 48.126 83.6785C46.5788 84.9421 44.817 85.7439 42.8519 86.0964C40.915 86.4591 38.9866 86.274 37.0588 85.5621L37.0473 85.5499ZM34.2545 79.3565C36.1868 80.0779 38.1178 80.256 40.0476 79.8907C42.0172 79.5479 43.7746 78.7364 45.3217 77.4729C46.8561 76.2446 47.9827 74.6678 48.7041 72.7356C49.4256 70.8033 49.6088 68.8582 49.2589 66.8861C48.9032 64.9518 48.084 63.2155 46.8231 61.6613C45.5948 60.1269 44.018 59.0003 42.0858 58.2789C40.1535 57.5574 38.2084 57.3742 36.2363 57.7241C34.2994 58.0868 32.5734 58.8778 31.0321 60.1035C29.4849 61.367 28.3506 62.9649 27.6317 64.8901C26.9102 66.8224 26.7322 68.7535 27.0975 70.6833C27.4403 72.6528 28.2306 74.4025 29.4589 75.9368C30.7224 77.484 32.3203 78.6183 34.2455 79.3372L34.2545 79.3565ZM60.2393 119.583C62.1716 120.305 64.1026 120.483 66.0324 120.117C68.0045 119.768 69.7594 118.963 71.3066 117.7C72.8409 116.471 73.9675 114.895 74.6889 112.962C75.4104 111.03 75.5936 109.085 75.2437 107.113C74.881 105.176 74.0688 103.442 72.8079 101.888C71.5796 100.354 70.0029 99.2271 68.0706 98.5056C66.1383 97.7842 64.1932 97.6009 62.2211 97.9508C60.2868 98.3065 58.5582 99.1046 57.0239 100.333C55.4767 101.596 54.3424 103.194 53.6235 105.119C52.9021 107.052 52.724 108.983 53.0893 110.913C53.4347 112.875 54.2225 114.632 55.4508 116.166C56.7143 117.713 58.3122 118.848 60.2374 119.567L60.2393 119.583ZM66.4122 116.847C64.4799 116.125 62.8942 114.98 61.6436 113.397C60.4153 111.863 59.6198 110.127 59.2641 108.193C58.8988 106.263 59.0865 104.328 59.7983 102.4C60.5198 100.467 61.6515 98.8766 63.1987 97.6131C64.733 96.3848 66.4686 95.5893 68.4029 95.2336C70.3724 94.8908 72.3176 95.074 74.2524 95.7885C76.1847 96.5099 77.7614 97.6365 78.9897 99.1708C80.2532 100.718 81.0628 102.459 81.4256 104.396C81.7684 106.365 81.5852 108.31 80.8707 110.245C80.1493 112.177 79.0227 113.754 77.4884 114.982C75.9541 116.211 74.2044 117.001 72.2349 117.344C70.2851 117.742 68.3489 117.578 66.4237 116.859L66.4122 116.847ZM72.5205 113.959C74.4528 114.681 76.3839 114.859 78.3137 114.493C80.2832 114.151 82.0406 113.339 83.5878 112.076C85.1221 110.847 86.2487 109.27 86.9702 107.338C87.6916 105.406 87.8748 103.461 87.525 101.489C87.1597 99.5589 86.3501 97.8181 85.0891 96.2639C83.8608 94.7296 82.2841 93.603 80.3518 92.8815C78.4196 92.1601 76.4744 91.9768 74.5023 92.3267C72.5654 92.6894 70.8395 93.4805 69.2981 94.7062C67.7509 95.9697 66.6166 97.5676 65.8977 99.4928C65.1763 101.425 64.9982 103.356 65.3635 105.286C65.7063 107.255 66.4967 109.005 67.725 110.539C68.9885 112.087 70.5864 113.221 72.5116 113.94L72.5205 113.959ZM78.6576 111.146C76.7254 110.424 75.132 109.3 73.871 107.745C72.6427 106.211 71.8524 104.461 71.5096 102.492C71.1468 100.555 71.332 98.6265 72.0438 96.6987C72.7652 94.7664 73.897 93.1756 75.4442 91.9121C76.9785 90.6838 78.7141 89.8883 80.6484 89.5326C82.6179 89.1898 84.563 89.373 86.4979 90.0874C88.4301 90.8089 90.0069 91.9355 91.2352 93.4698C92.4987 95.017 93.3083 96.7577 93.671 98.6946C94.0138 100.664 93.8306 102.609 93.1162 104.544C92.3948 106.476 91.2682 108.053 89.7338 109.281C88.1867 110.545 86.4248 111.347 84.4597 111.699C82.5254 112.055 80.5944 111.877 78.6666 111.165L78.6576 111.146ZM84.8305 108.409C86.7628 109.131 88.6938 109.309 90.6237 108.944C92.5932 108.601 94.3506 107.789 95.8978 106.526C97.4321 105.298 98.5587 103.721 99.2801 101.788C100.002 99.8562 100.185 97.9111 99.8349 95.939C99.4722 94.0021 98.6601 92.2684 97.3991 90.7142C96.1708 89.1798 94.5941 88.0532 92.6618 87.3318C90.7295 86.6103 88.7844 86.4271 86.8123 86.777C84.8754 87.1397 83.1494 87.9307 81.6151 89.159C80.068 90.4225 78.9336 92.0204 78.2148 93.9456C77.4933 95.8779 77.3152 97.8089 77.6805 99.7388C78.0234 101.708 78.8137 103.458 80.042 104.992C81.3055 106.539 82.9034 107.674 84.8286 108.393L84.8305 108.409ZM90.9676 105.596C89.0354 104.875 87.4419 103.75 86.181 102.196C84.9527 100.661 84.1623 98.9116 83.8195 96.9421C83.4613 95.0148 83.6419 93.0767 84.3538 91.149C85.0752 89.2167 86.207 87.6258 87.7541 86.3623C89.3013 85.0988 91.042 84.2892 92.9789 83.9265C94.9285 83.6163 96.8756 83.8162 98.8079 84.5377C100.74 85.2591 102.325 86.3646 103.566 87.8637C104.829 89.4109 105.631 91.1728 105.984 93.1378C106.326 95.1074 106.143 97.0525 105.429 98.9873C104.707 100.92 103.581 102.496 102.046 103.725C100.499 104.988 98.7373 105.79 96.7723 106.142C94.838 106.498 92.9044 106.327 90.9791 105.608L90.9676 105.596ZM97.1227 102.733C99.055 103.455 100.986 103.633 102.916 103.268C104.885 102.925 106.643 102.113 108.19 100.85C109.724 99.6215 110.851 98.0448 111.572 96.1125C112.294 94.1802 112.477 92.2351 112.127 90.263C111.764 88.3261 110.952 86.5924 109.691 85.0382C108.463 83.5039 106.886 82.3773 104.954 81.6558C103.022 80.9343 101.077 80.7511 99.1045 81.101C97.1676 81.4637 95.4416 82.2547 93.9073 83.483C92.3602 84.7465 91.2258 86.3444 90.507 88.2696C89.7855 90.2019 89.6074 92.133 89.9727 94.0628C90.3156 96.0323 91.1059 97.782 92.3342 99.3163C93.5977 100.864 95.1956 101.998 97.1208 102.717L97.1227 102.733ZM103.334 99.8913C101.402 99.1698 99.8111 98.0381 98.5476 96.4909C97.3193 94.9566 96.5289 93.2069 96.1861 91.2374C95.8234 89.3005 96.0085 87.372 96.7203 85.4442C97.4418 83.512 98.5735 81.9211 100.121 80.6576C101.655 79.4293 103.391 78.6338 105.325 78.2781C107.294 77.9353 109.24 78.1186 111.174 78.833C113.107 79.5544 114.683 80.681 115.912 82.2153C117.175 83.7625 117.985 85.5033 118.348 87.4401C118.69 89.4097 118.507 91.3548 117.793 93.2897C117.071 95.2219 115.945 96.7987 114.41 98.027C112.863 99.2905 111.101 100.092 109.136 100.445C107.199 100.808 105.271 100.622 103.343 99.9105L103.334 99.8913ZM82.4626 45.9222C80.5303 45.2007 78.9395 44.069 77.676 42.5218C76.4477 40.9875 75.6573 39.2378 75.3145 37.2683C74.9518 35.3314 75.1369 33.4029 75.8488 31.4751C76.5702 29.5428 77.7019 27.952 79.2491 26.6885C80.7834 25.4602 82.519 24.6647 84.4533 24.309C86.4229 23.9662 88.368 24.1494 90.3028 24.8638C92.2351 25.5853 93.8119 26.7119 95.0401 28.2462C96.3037 29.7934 97.1132 31.5341 97.476 33.471C97.8188 35.4406 97.6356 37.3857 96.9212 39.3205C96.1997 41.2528 95.0731 42.8296 93.5388 44.0579C91.9916 45.3214 90.2298 46.1232 88.2647 46.4757C86.3278 46.8384 84.3993 46.6533 82.4716 45.9414L82.4626 45.9222Z" fill="black"/>
<path d="M80.0758 52.2845C82.0081 53.006 83.9391 53.184 85.8689 52.8187C87.8385 52.4759 89.5959 51.6644 91.1431 50.4009C92.6774 49.1726 93.804 47.5959 94.5254 45.6636C95.2469 43.7314 95.4301 41.7862 95.0802 39.8141C94.7246 37.8798 93.9053 36.1435 92.6444 34.5893C91.4161 33.055 89.8394 31.9284 87.9071 31.2069C85.9748 30.4855 84.0297 30.3022 82.0576 30.6521C80.1207 31.0148 78.3947 31.8059 76.8604 33.0341C75.3133 34.2977 74.1789 35.8955 73.4601 37.8208C72.7386 39.753 72.5605 41.6841 72.9258 43.6139C73.2686 45.5834 74.059 47.3331 75.2873 48.8675C76.5508 50.4146 78.1487 51.549 80.0739 52.2678L80.0758 52.2845ZM77.7102 58.6545C75.7779 57.9331 74.187 56.8013 72.9235 55.2542C71.6952 53.7198 70.9049 51.9701 70.5621 50.0006C70.2064 48.0663 70.3845 46.1352 71.0963 44.2075C71.8178 42.2752 72.9495 40.6843 74.4967 39.4208C76.031 38.1925 77.7666 37.397 79.7009 37.0414C81.6704 36.6986 83.6155 36.8818 85.5504 37.5962C87.4826 38.3176 89.062 39.4372 90.2877 40.9786C91.5512 42.5257 92.3608 44.2665 92.7235 46.2034C93.0663 48.1729 92.8831 50.118 92.1687 52.0529C91.4473 53.9852 90.3207 55.5619 88.7863 56.7902C87.2392 58.0537 85.4773 58.8556 83.5122 59.208C81.5754 59.5707 79.6469 59.3856 77.7191 58.6738L77.7102 58.6545ZM75.3445 65.0246C77.2768 65.746 79.2078 65.9241 81.1376 65.5588C83.1072 65.216 84.8646 64.4045 86.4117 63.141C87.9461 61.9127 89.0727 60.3359 89.7941 58.4037C90.5156 56.4714 90.6988 54.5263 90.3489 52.5542C89.9862 50.6173 89.174 48.8836 87.9131 47.3294C86.6848 45.795 85.108 44.6684 83.1758 43.947C81.2435 43.2255 79.2984 43.0423 77.3263 43.3922C75.3894 43.7549 73.6634 44.5459 72.1221 45.7716C70.5749 47.0351 69.4406 48.633 68.7217 50.5582C68.0002 52.4905 67.8222 54.4216 68.1875 56.3514C68.5303 58.3209 69.3206 60.0706 70.5489 61.6049C71.8124 63.1521 73.4103 64.2864 75.3355 65.0053L75.3445 65.0246ZM68.2379 84.1391C66.3056 83.4177 64.7148 82.2859 63.4513 80.7387C62.223 79.2044 61.4326 77.4547 61.0898 75.4852C60.7271 73.5483 60.9122 71.6198 61.624 69.692C62.3455 67.7598 63.4772 66.1689 65.0244 64.9054C66.5587 63.6771 68.2943 62.8816 70.2216 62.5234C72.1911 62.1806 74.1363 62.3638 76.0711 63.0782C78.0034 63.7997 79.5801 64.9263 80.8084 66.4606C82.0719 68.0078 82.8815 69.7485 83.2442 71.6854C83.587 73.6549 83.4038 75.6001 82.6894 77.5349C81.968 79.4672 80.8414 81.0439 79.307 82.2722C77.7599 83.5357 75.998 84.3376 74.0329 84.69C72.0961 85.0527 70.1676 84.8676 68.2398 84.1558L68.2379 84.1391ZM65.8722 90.5092C67.8045 91.2306 69.7355 91.4087 71.6654 91.0434C73.6349 90.7006 75.3923 89.8891 76.9395 88.6256C78.4738 87.3973 79.6004 85.8205 80.3219 83.8883C81.0433 81.956 81.2265 80.0109 80.8767 78.0388C80.5139 76.1019 79.7018 74.3682 78.4408 72.8139C77.2125 71.2796 75.6358 70.153 73.7035 69.4316C71.7713 68.7101 69.8261 68.5269 67.854 68.8767C65.9171 69.2395 64.1912 70.0305 62.6498 71.2562C61.1026 72.5197 59.9683 74.1176 59.2494 76.0428C58.528 77.9751 58.3499 79.9062 58.7152 81.836C59.058 83.8055 59.8484 85.5552 61.0767 87.0895C62.3402 88.6367 63.9381 89.771 65.8633 90.4899L65.8722 90.5092ZM72.9788 71.3946C71.0466 70.6731 69.4557 69.5414 68.1922 67.9942C66.9639 66.4599 66.1736 64.7102 65.8307 62.7407C65.468 60.8038 65.6531 58.8753 66.365 56.9475C67.0864 55.0152 68.2182 53.4244 69.7653 52.1609C71.2997 50.9326 73.0353 50.1371 74.9696 49.7814C76.9391 49.4386 78.8842 49.6218 80.8191 50.3362C82.7513 51.0577 84.3281 52.1843 85.5564 53.7186C86.8199 55.2658 87.6295 57.0065 87.9922 58.9434C88.3376 60.9059 88.1518 62.8581 87.4374 64.7929C86.7159 66.7252 85.5893 68.302 84.055 69.5302C82.5079 70.7938 80.746 71.5956 78.7809 71.9481C76.8466 72.3037 74.9156 72.1257 72.9878 71.4138L72.9788 71.3946ZM70.6132 77.7646C72.5454 78.4861 74.4765 78.6642 76.4063 78.2989C78.3758 77.956 80.1332 77.1446 81.6804 75.881C83.2147 74.6528 84.3413 73.076 85.0628 71.1437C85.7842 69.2115 85.9675 67.2663 85.6176 65.2942C85.2619 63.3599 84.4427 61.6236 83.1818 60.0694C81.9535 58.5351 80.3767 57.4085 78.4445 56.687C76.5122 55.9656 74.5671 55.7824 72.595 56.1322C70.6581 56.4949 68.9321 57.286 67.3907 58.5117C65.8436 59.7752 64.7093 61.3731 63.9904 63.2983C63.2689 65.2306 63.0908 67.1616 63.4561 69.0915C63.799 71.061 64.5893 72.8107 65.8176 74.345C67.0811 75.8922 68.679 77.0265 70.6042 77.7454L70.6132 77.7646ZM58.7656 109.624C56.8334 108.902 55.2425 107.771 53.979 106.223C52.7507 104.689 51.9604 102.939 51.6176 100.97C51.2593 99.0425 51.44 97.1044 52.1518 95.1766C52.8732 93.2444 54.005 91.6535 55.5522 90.39C57.0865 89.1617 58.8221 88.3662 60.7493 88.008C62.7189 87.6652 64.664 87.8484 66.5988 88.5628C68.5311 89.2842 70.1078 90.4108 71.3361 91.9452C72.5996 93.4923 73.4092 95.2331 73.772 97.17C74.1148 99.1395 73.9316 101.085 73.2172 103.019C72.4957 104.952 71.3691 106.529 69.8348 107.757C68.2876 109.02 66.5257 109.822 64.5607 110.175C62.6264 110.53 60.6953 110.352 58.7675 109.64L58.7656 109.624ZM56.4 115.994C58.3323 116.715 60.2633 116.893 62.1931 116.528C64.1627 116.185 65.9201 115.374 67.4672 114.11C69.0016 112.882 70.1281 111.305 70.8496 109.373C71.571 107.441 71.7543 105.495 71.4044 103.523C71.0417 101.586 70.2295 99.8528 68.9686 98.2985C67.7403 96.7642 66.1635 95.6376 64.2313 94.9162C62.299 94.1947 60.3539 94.0115 58.3818 94.3613C56.4475 94.717 54.7189 95.5151 53.1776 96.7408C51.6304 98.0043 50.4961 99.6022 49.7772 101.527C49.0557 103.46 48.8777 105.391 49.243 107.321C49.5858 109.29 50.3761 111.04 51.6044 112.574C52.8679 114.121 54.4658 115.256 56.391 115.975L56.4 115.994ZM63.5066 96.8792C61.5743 96.1577 59.9835 95.026 58.72 93.4788C57.4917 91.9445 56.7013 90.1948 56.3585 88.2253C55.9932 86.2954 56.1809 84.3599 56.8927 82.4321C57.6142 80.4998 58.7459 78.909 60.2931 77.6455C61.8274 76.4172 63.563 75.6217 65.4973 75.266C67.4668 74.9232 69.412 75.1064 71.3468 75.8208C73.2791 76.5423 74.8558 77.6689 76.0841 79.2032C77.3476 80.7504 78.1572 82.4911 78.5199 84.428C78.8628 86.3976 78.6795 88.3427 77.9651 90.2775C77.2437 92.2098 76.1171 93.7865 74.5828 95.0148C73.0356 96.2783 71.2737 97.0802 69.3112 97.4256C67.3744 97.7883 65.4433 97.6103 63.5181 96.8914L63.5066 96.8792ZM61.1409 103.249C63.0732 103.971 65.0042 104.149 66.9341 103.783C68.9036 103.441 70.661 102.629 72.2082 101.366C73.7425 100.137 74.8691 98.5606 75.5905 96.6283C76.312 94.6961 76.4952 92.7509 76.1453 90.7788C75.7897 88.8445 74.9705 87.1082 73.7095 85.554C72.4812 84.0197 70.9045 82.8931 68.9722 82.1716C67.0399 81.4502 65.0948 81.2669 63.1227 81.6168C61.1858 81.9795 59.4599 82.7706 57.9185 83.9963C56.3713 85.2598 55.237 86.8577 54.5181 88.7829C53.7967 90.7152 53.6186 92.6462 53.9839 94.576C54.3267 96.5456 55.1171 98.2953 56.3454 99.8296C57.6089 101.377 59.2068 102.511 61.132 103.23L61.1409 103.249ZM54.0343 122.364C52.1021 121.642 50.5112 120.511 49.2477 118.963C48.0194 117.429 47.2291 115.679 46.8862 113.71C46.5209 111.78 46.7086 109.844 47.4205 107.917C48.1419 105.984 49.2737 104.394 50.8208 103.13C52.3552 101.902 54.0908 101.106 56.0251 100.751C57.9946 100.408 59.9397 100.591 61.8746 101.305C63.8068 102.027 65.3836 103.153 66.6119 104.688C67.8754 106.235 68.685 107.976 69.0503 109.906C69.3931 111.875 69.2099 113.82 68.4955 115.755C67.774 117.687 66.6474 119.264 65.1131 120.492C63.5659 121.756 61.804 122.558 59.839 122.91C57.9047 123.266 55.9736 123.088 54.0458 122.376L54.0343 122.364ZM31.4009 73.1328C29.4686 72.4113 27.8919 71.2847 26.6636 69.7504C25.4001 68.2032 24.5982 66.4413 24.2458 64.4763C23.883 62.5394 24.0682 60.6109 24.78 58.6831C25.5014 56.7509 26.6332 55.16 28.1804 53.8965C29.7147 52.6682 31.4644 51.8779 33.4339 51.535C35.3612 51.1768 37.2992 51.3575 39.227 52.0693C41.1593 52.7908 42.736 53.9174 43.9643 55.4517C45.2278 56.9989 46.0374 58.7396 46.4002 60.6765C46.75 62.6486 46.5598 64.5912 45.8454 66.526C45.1239 68.4583 43.9973 70.035 42.463 71.2633C40.9158 72.5268 39.161 73.3313 37.1889 73.6811C35.2591 74.0464 33.3235 73.8587 31.3957 73.1469L31.4009 73.1328ZM51.1717 116.209C53.1039 116.93 55.035 117.108 56.9648 116.743C58.9369 116.393 60.6917 115.589 62.2389 114.325C63.7732 113.097 64.8998 111.52 65.6213 109.588C66.3427 107.655 66.526 105.71 66.1761 103.738C65.8178 101.811 65.0012 100.068 63.7403 98.5134C62.512 96.9791 60.9352 95.8525 59.003 95.1311C57.0707 94.4096 55.1256 94.2264 53.1535 94.5762C51.2191 94.9319 49.4906 95.73 47.9492 96.9557C46.4021 98.2192 45.2678 99.8171 44.5489 101.742C43.8274 103.675 43.6493 105.606 44.0146 107.535C44.3575 109.505 45.1478 111.255 46.3761 112.789C47.6396 114.336 49.2375 115.471 51.1627 116.189L51.1717 116.209ZM48.291 110.103C46.3587 109.381 44.773 108.236 43.5224 106.653C42.2941 105.119 41.4986 103.383 41.1403 101.456C40.7847 99.5217 40.9557 97.588 41.6746 95.6628C42.396 93.7305 43.5278 92.1397 45.0749 90.8762C46.6093 89.6479 48.3449 88.8524 50.2792 88.4967C52.2513 88.1469 54.1964 88.3301 56.1287 89.0515C58.0609 89.773 59.6377 90.8996 60.866 92.4339C62.1295 93.9811 62.9391 95.7219 63.3018 97.6587C63.6472 99.6212 63.4614 101.573 62.747 103.508C62.0255 105.441 60.8989 107.017 59.3646 108.246C57.8303 109.474 56.0806 110.264 54.1111 110.607C52.1639 110.998 50.2252 110.841 48.2999 110.122L48.291 110.103ZM45.5546 103.93C47.4869 104.651 49.4179 104.829 51.3477 104.464C53.3173 104.121 55.0747 103.31 56.6219 102.046C58.1562 100.818 59.2828 99.2413 60.0042 97.3091C60.7257 95.3768 60.9089 93.4317 60.559 91.4596C60.1937 89.5297 59.3841 87.789 58.1232 86.2347C56.8949 84.7004 55.3182 83.5738 53.3859 82.8524C51.4536 82.1309 49.5085 81.9477 47.5364 82.2976C45.6066 82.6628 43.8735 83.4513 42.3392 84.6796C40.792 85.9431 39.6577 87.541 38.9388 89.4662C38.2174 91.3985 38.0393 93.3295 38.4046 95.2594C38.7474 97.2289 39.5378 98.9786 40.7661 100.513C42.0296 102.06 43.6275 103.194 45.5527 103.913L45.5546 103.93ZM42.7413 97.7928C40.809 97.0714 39.2181 95.9396 37.9546 94.3925C36.7263 92.8581 35.936 91.1084 35.5932 89.1389C35.2279 87.2091 35.4156 85.2736 36.1274 83.3458C36.8489 81.4135 37.9806 79.8227 39.5278 78.5591C41.0621 77.3309 42.7977 76.5354 44.732 76.1797C46.7015 75.8369 48.6467 76.0201 50.5815 76.7345C52.5138 77.456 54.0905 78.5826 55.3188 80.1169C56.5823 81.6641 57.3919 83.4048 57.7546 85.3417C58.1 87.3042 57.9142 89.2564 57.1998 91.1912C56.4784 93.1235 55.3518 94.7002 53.8175 95.9285C52.2703 97.192 50.5084 97.9939 48.5433 98.3463C46.609 98.702 44.6754 98.531 42.7502 97.8121L42.7413 97.7928ZM39.8606 91.687C41.7929 92.4085 43.7239 92.5866 45.6537 92.2213C47.6258 91.8714 49.3807 91.067 50.9278 89.8035C52.4622 88.5752 53.5888 86.9984 54.3102 85.0662C55.0317 83.1339 55.2149 81.1887 54.865 79.2166C54.5023 77.2798 53.6901 75.5461 52.4292 73.9918C51.2009 72.4575 49.6241 71.3309 47.6919 70.6095C45.7596 69.888 43.8145 69.7048 41.8424 70.0546C39.9151 70.4129 38.1795 71.2084 36.6452 72.4367C35.098 73.7002 33.9637 75.2981 33.2448 77.2233C32.5234 79.1556 32.3453 81.0866 32.7106 83.0164C33.0605 84.9886 33.8438 86.7357 35.0721 88.27C36.3356 89.8172 37.9335 90.9515 39.8587 91.6704L39.8606 91.687ZM37.0473 85.5499C35.115 84.8285 33.5241 83.6967 32.2606 82.1495C31.0323 80.6152 30.242 78.8655 29.8992 76.896C29.5435 74.9617 29.7145 73.0281 30.4334 71.1028C31.1548 69.1706 32.2866 67.5797 33.8338 66.3162C35.3809 65.0527 37.1217 64.2431 39.0586 63.8804C41.0152 63.5728 42.9552 63.7701 44.8875 64.4916C46.8197 65.213 48.4042 66.3185 49.6454 67.8176C50.9089 69.3648 51.7108 71.1267 52.0632 73.0917C52.406 75.0613 52.2228 77.0064 51.5084 78.9412C50.7869 80.8735 49.6603 82.4503 48.126 83.6785C46.5788 84.9421 44.817 85.7439 42.8519 86.0964C40.915 86.4591 38.9866 86.274 37.0588 85.5621L37.0473 85.5499ZM34.2545 79.3565C36.1868 80.0779 38.1178 80.256 40.0476 79.8907C42.0172 79.5479 43.7746 78.7364 45.3217 77.4729C46.8561 76.2446 47.9827 74.6678 48.7041 72.7356C49.4256 70.8033 49.6088 68.8582 49.2589 66.8861C48.9032 64.9518 48.084 63.2155 46.8231 61.6613C45.5948 60.1269 44.018 59.0003 42.0858 58.2789C40.1535 57.5574 38.2084 57.3742 36.2363 57.7241C34.2994 58.0868 32.5734 58.8778 31.0321 60.1035C29.4849 61.367 28.3506 62.9649 27.6317 64.8901C26.9102 66.8224 26.7322 68.7535 27.0975 70.6833C27.4403 72.6528 28.2306 74.4025 29.4589 75.9368C30.7224 77.484 32.3203 78.6183 34.2455 79.3372L34.2545 79.3565ZM60.2393 119.583C62.1716 120.305 64.1026 120.483 66.0324 120.117C68.0045 119.768 69.7594 118.963 71.3066 117.7C72.8409 116.471 73.9675 114.895 74.6889 112.962C75.4104 111.03 75.5936 109.085 75.2437 107.113C74.881 105.176 74.0688 103.442 72.8079 101.888C71.5796 100.354 70.0029 99.2271 68.0706 98.5056C66.1383 97.7842 64.1932 97.6009 62.2211 97.9508C60.2868 98.3065 58.5582 99.1046 57.0239 100.333C55.4767 101.596 54.3424 103.194 53.6235 105.119C52.9021 107.052 52.724 108.983 53.0893 110.913C53.4347 112.875 54.2225 114.632 55.4508 116.166C56.7143 117.713 58.3122 118.848 60.2374 119.567L60.2393 119.583ZM66.4122 116.847C64.4799 116.125 62.8942 114.98 61.6436 113.397C60.4153 111.863 59.6198 110.127 59.2641 108.193C58.8988 106.263 59.0865 104.328 59.7983 102.4C60.5198 100.467 61.6515 98.8766 63.1987 97.6131C64.733 96.3848 66.4686 95.5893 68.4029 95.2336C70.3724 94.8908 72.3176 95.074 74.2524 95.7885C76.1847 96.5099 77.7614 97.6365 78.9897 99.1708C80.2532 100.718 81.0628 102.459 81.4256 104.396C81.7684 106.365 81.5852 108.31 80.8707 110.245C80.1493 112.177 79.0227 113.754 77.4884 114.982C75.9541 116.211 74.2044 117.001 72.2349 117.344C70.2851 117.742 68.3489 117.578 66.4237 116.859L66.4122 116.847ZM72.5205 113.959C74.4528 114.681 76.3839 114.859 78.3137 114.493C80.2832 114.151 82.0406 113.339 83.5878 112.076C85.1221 110.847 86.2487 109.27 86.9702 107.338C87.6916 105.406 87.8748 103.461 87.525 101.489C87.1597 99.5589 86.3501 97.8181 85.0891 96.2639C83.8608 94.7296 82.2841 93.603 80.3518 92.8815C78.4196 92.1601 76.4744 91.9768 74.5023 92.3267C72.5654 92.6894 70.8395 93.4805 69.2981 94.7062C67.7509 95.9697 66.6166 97.5676 65.8977 99.4928C65.1763 101.425 64.9982 103.356 65.3635 105.286C65.7063 107.255 66.4967 109.005 67.725 110.539C68.9885 112.087 70.5864 113.221 72.5116 113.94L72.5205 113.959ZM78.6576 111.146C76.7254 110.424 75.132 109.3 73.871 107.745C72.6427 106.211 71.8524 104.461 71.5096 102.492C71.1468 100.555 71.332 98.6265 72.0438 96.6987C72.7652 94.7664 73.897 93.1756 75.4442 91.9121C76.9785 90.6838 78.7141 89.8883 80.6484 89.5326C82.6179 89.1898 84.563 89.373 86.4979 90.0874C88.4301 90.8089 90.0069 91.9355 91.2352 93.4698C92.4987 95.017 93.3083 96.7577 93.671 98.6946C94.0138 100.664 93.8306 102.609 93.1162 104.544C92.3948 106.476 91.2682 108.053 89.7338 109.281C88.1867 110.545 86.4248 111.347 84.4597 111.699C82.5254 112.055 80.5944 111.877 78.6666 111.165L78.6576 111.146ZM84.8305 108.409C86.7628 109.131 88.6938 109.309 90.6237 108.944C92.5932 108.601 94.3506 107.789 95.8978 106.526C97.4321 105.298 98.5587 103.721 99.2801 101.788C100.002 99.8562 100.185 97.9111 99.8349 95.939C99.4722 94.0021 98.6601 92.2684 97.3991 90.7142C96.1708 89.1798 94.5941 88.0532 92.6618 87.3318C90.7295 86.6103 88.7844 86.4271 86.8123 86.777C84.8754 87.1397 83.1494 87.9307 81.6151 89.159C80.068 90.4225 78.9336 92.0204 78.2148 93.9456C77.4933 95.8779 77.3152 97.8089 77.6805 99.7388C78.0234 101.708 78.8137 103.458 80.042 104.992C81.3055 106.539 82.9034 107.674 84.8286 108.393L84.8305 108.409ZM90.9676 105.596C89.0354 104.875 87.4419 103.75 86.181 102.196C84.9527 100.661 84.1623 98.9116 83.8195 96.9421C83.4613 95.0148 83.6419 93.0767 84.3538 91.149C85.0752 89.2167 86.207 87.6258 87.7541 86.3623C89.3013 85.0988 91.042 84.2892 92.9789 83.9265C94.9285 83.6163 96.8756 83.8162 98.8079 84.5377C100.74 85.2591 102.325 86.3646 103.566 87.8637C104.829 89.4109 105.631 91.1728 105.984 93.1378C106.326 95.1074 106.143 97.0525 105.429 98.9873C104.707 100.92 103.581 102.496 102.046 103.725C100.499 104.988 98.7373 105.79 96.7723 106.142C94.838 106.498 92.9044 106.327 90.9791 105.608L90.9676 105.596ZM97.1227 102.733C99.055 103.455 100.986 103.633 102.916 103.268C104.885 102.925 106.643 102.113 108.19 100.85C109.724 99.6215 110.851 98.0448 111.572 96.1125C112.294 94.1802 112.477 92.2351 112.127 90.263C111.764 88.3261 110.952 86.5924 109.691 85.0382C108.463 83.5039 106.886 82.3773 104.954 81.6558C103.022 80.9343 101.077 80.7511 99.1045 81.101C97.1676 81.4637 95.4416 82.2547 93.9073 83.483C92.3602 84.7465 91.2258 86.3444 90.507 88.2696C89.7855 90.2019 89.6074 92.133 89.9727 94.0628C90.3156 96.0323 91.1059 97.782 92.3342 99.3163C93.5977 100.864 95.1956 101.998 97.1208 102.717L97.1227 102.733ZM103.334 99.8913C101.402 99.1698 99.8111 98.0381 98.5476 96.4909C97.3193 94.9566 96.5289 93.2069 96.1861 91.2374C95.8234 89.3005 96.0085 87.372 96.7203 85.4442C97.4418 83.512 98.5735 81.9211 100.121 80.6576C101.655 79.4293 103.391 78.6338 105.325 78.2781C107.294 77.9353 109.24 78.1186 111.174 78.833C113.107 79.5544 114.683 80.681 115.912 82.2153C117.175 83.7625 117.985 85.5033 118.348 87.4401C118.69 89.4097 118.507 91.3548 117.793 93.2897C117.071 95.2219 115.945 96.7987 114.41 98.027C112.863 99.2905 111.101 100.092 109.136 100.445C107.199 100.808 105.271 100.622 103.343 99.9105L103.334 99.8913ZM82.4626 45.9222C80.5303 45.2007 78.9395 44.069 77.676 42.5218C76.4477 40.9875 75.6573 39.2378 75.3145 37.2683C74.9518 35.3314 75.1369 33.4029 75.8488 31.4751C76.5702 29.5428 77.7019 27.952 79.2491 26.6885C80.7834 25.4602 82.519 24.6647 84.4533 24.309C86.4229 23.9662 88.368 24.1494 90.3028 24.8638C92.2351 25.5853 93.8119 26.7119 95.0401 28.2462C96.3037 29.7934 97.1132 31.5341 97.476 33.471C97.8188 35.4406 97.6356 37.3857 96.9212 39.3205C96.1997 41.2528 95.0731 42.8296 93.5388 44.0579C91.9916 45.3214 90.2298 46.1232 88.2647 46.4757C86.3278 46.8384 84.3993 46.6533 82.4716 45.9414L82.4626 45.9222Z" fill="black" fill-opacity="0.2"/>
</svg>
