<svg width="126" height="151" viewBox="0 0 126 151" fill="none" xmlns="http://www.w3.org/2000/svg">
<g clip-path="url(#clip0_5842_11099)">
<path d="M112.749 90.6353C114.604 90.0563 115.639 88.0811 115.06 86.2263L113.386 80.8638C112.807 79.009 111.335 79.5865 109.481 80.1655L108.895 78.2906C109.863 77.3985 110.297 76.0018 109.878 74.6578L105.623 61.0296C105.252 59.8401 104.447 58.7492 103.221 58.1068C102.983 57.982 102.742 57.895 102.503 57.8147L102.375 57.4048C102.533 57.2007 102.672 56.9874 102.799 56.756C103.442 55.5303 103.483 54.1751 103.112 52.9857L87.7744 3.85553C87.1953 2.0008 85.2201 0.965446 83.3654 1.54447L78.0028 3.21859C76.1481 3.79761 75.1127 5.77282 75.6917 7.62755L77.5106 13.4538L70.8309 15.5391L69.012 9.71286C68.433 7.85813 66.4578 6.82277 64.6031 7.40179L59.3413 9.04444C57.4866 9.62346 56.4512 11.5987 57.0302 13.4534L57.2337 14.1053C56.6274 13.793 56.0004 13.6274 55.3667 13.5819C54.9582 13.053 54.4393 12.5955 53.7956 12.2581C52.5699 11.6156 51.2147 11.5741 50.0252 11.9454L34.0383 16.9363C32.8488 17.3076 31.7579 18.1128 31.1155 19.3385C30.7827 19.9734 30.6141 20.6381 30.5769 21.2987C30.0548 21.7051 29.604 22.222 29.2712 22.8569L29.0593 22.1781C28.4803 20.3234 26.5051 19.288 24.6504 19.8671L19.2878 21.5412C18.8107 21.6901 18.3852 21.9336 18.0319 22.243C17.5653 22.1895 17.0769 22.2314 16.5998 22.3803L11.2372 24.0545C9.38247 24.6335 8.34712 26.6087 8.92613 28.4634L12.8828 41.1374L6.20306 43.2227L2.24852 30.5555C1.6695 28.7007 -0.305712 27.6654 -2.16044 28.2444L-7.42222 29.887C-9.26351 30.4619 -10.2989 32.4371 -9.71985 34.2918L5.61997 83.4287C5.99129 84.6181 6.79647 85.709 8.02216 86.3515C8.37488 86.5364 8.73979 86.6658 9.10766 86.7575C8.85728 87.0421 8.63083 87.3562 8.44594 87.7089C7.80346 88.9346 7.76192 90.2898 8.13325 91.4793L12.3878 105.107C12.9668 106.962 14.942 107.998 16.7967 107.419L18.8531 106.777L19.344 108.349C18.3628 108.773 17.4937 109.509 16.9416 110.552C16.6088 111.187 15.9367 110.239 15.8995 110.899C15.3774 111.306 14.9266 111.823 14.5938 112.458C13.9514 113.683 13.9098 115.038 14.2812 116.228L17.6126 126.899C17.9839 128.089 18.7891 129.18 20.0148 129.822C20.3675 130.007 20.7324 130.136 21.1003 130.228C20.8499 130.513 20.6235 130.827 20.4386 131.18C19.7961 132.405 19.7546 133.76 20.1259 134.95L23.8769 146.965C24.4559 148.82 26.4312 149.855 28.2859 149.276L33.6485 147.602C35.5032 147.023 36.5386 145.048 35.9595 143.193L32.84 133.201L45.514 129.244C46.2666 129.009 46.879 128.538 47.3046 127.94L50.6361 138.611C51.2151 140.466 53.1903 141.502 55.0451 140.923L60.4076 139.248C62.2624 138.669 63.2977 136.694 62.7187 134.839L56.6642 115.445C57.1668 115.709 57.6959 115.868 58.22 115.941L59.4074 119.744C59.7787 120.934 60.5839 122.024 61.8096 122.667C62.3299 122.94 62.8745 123.101 63.4188 123.168L63.7481 124.223C64.1195 125.412 64.9246 126.503 66.1503 127.145C66.6706 127.418 67.2152 127.58 67.7595 127.646L68.1036 128.748C68.4749 129.938 69.2801 131.028 70.5058 131.671C71.0348 131.948 71.5929 132.106 72.146 132.177C72.817 133.877 74.6831 134.799 76.4505 134.247L81.813 132.573C83.5804 132.022 84.5905 130.202 84.1748 128.421C84.5895 128.049 84.9587 127.601 85.2361 127.072C85.8785 125.847 85.9201 124.491 85.5487 123.302L85.1984 122.18C85.5882 121.822 85.9327 121.39 86.1962 120.887C86.8387 119.662 86.8802 118.306 86.5089 117.117L86.1795 116.062C86.5874 115.691 86.9453 115.255 87.218 114.735C87.8605 113.509 87.9021 112.154 87.5307 110.964L86.3496 107.181C86.7575 106.81 87.1155 106.374 87.3882 105.854C87.573 105.501 87.7071 105.127 87.7921 104.762C88.0767 105.012 88.3929 105.245 88.7456 105.43C89.0983 105.615 89.4632 105.744 89.8311 105.836C89.5807 106.121 89.3543 106.435 89.1694 106.788C88.5269 108.013 88.4854 109.368 88.8567 110.558L92.1881 121.229C92.5595 122.419 93.3647 123.51 94.5903 124.152C95.2252 124.485 95.89 124.653 96.5506 124.691C96.957 125.213 97.4738 125.664 98.1087 125.996C99.3344 126.639 100.69 126.68 101.879 126.309L121.932 120.049C123.786 119.47 124.822 117.495 124.243 115.64L122.569 110.277C121.99 108.423 120.014 107.387 118.16 107.966L102.804 112.76L101.571 108.809L114.245 104.852C116.099 104.273 117.135 102.298 116.556 100.443L114.882 95.0804C114.303 93.2257 112.327 92.1903 110.473 92.7693L97.7987 96.726L97.4022 95.4559L112.758 90.6622L112.749 90.6353Z" fill="#0064FF"/>
<path d="M9.14778 82.918L-6.19204 33.7812L-0.930254 32.1385L14.8291 82.6194L28.2289 78.4362L12.4695 27.9553L17.8321 26.2812L33.1719 75.4181C33.4194 76.211 33.0451 76.9253 32.2521 77.1728L30.9148 77.5903L32.5889 82.9529L33.9262 82.5354C34.7192 82.2879 35.4334 82.6622 35.681 83.4552L40.3551 98.4274L34.9925 100.102L29.9009 83.792L16.5012 87.9753L21.5928 104.285L16.331 105.927L11.6569 90.9552C11.4093 90.1622 11.7837 89.448 12.5767 89.2004L13.8669 88.7976L12.1928 83.435L10.9025 83.8378C10.1096 84.0854 9.39533 83.711 9.14778 82.918ZM43.0431 97.5883L20.5201 25.442L25.8827 23.7679L48.4078 95.9209L43.0452 97.595L43.0431 97.5883ZM32.8355 27.1876L32.418 25.8503C32.1704 25.0573 32.5448 24.3431 33.3378 24.0955L35.3464 25.8284L34.2576 22.3407C34.01 21.5478 34.3844 20.8335 35.1774 20.586L51.1643 15.5951C51.9573 15.3475 52.6716 15.7219 52.9191 16.5149L53.3366 17.8522L54.6268 17.4494C55.4198 17.2018 56.1341 17.5762 56.3816 18.3692L56.7991 19.7065L58.1364 19.289C58.9293 19.0414 59.6436 19.4158 59.8912 20.2088L61.9681 26.8616L56.6592 28.519L55.0019 23.2101L53.7117 23.6129C52.9187 23.8605 52.2044 23.4861 51.9569 22.6931L51.5394 21.3558L38.1867 25.5244L38.6042 26.8616C38.8517 27.6546 38.4773 28.3689 37.6844 28.6164L36.3471 29.0339L53.4303 83.7551L54.7675 83.3376C55.5605 83.0901 56.2748 83.4645 56.5223 84.2574L56.9398 85.5947L64.9299 83.1003L64.5124 81.763C64.2649 80.9701 64.6393 80.2558 65.4322 80.0083L66.7695 79.5908L66.3667 78.3005C66.1192 77.5076 66.4936 76.7933 67.2865 76.5458L71.2581 75.3059L70.421 72.6246L62.3771 75.1358L60.703 69.7732L70.0371 66.8592C70.8301 66.6117 71.5444 66.9861 71.7919 67.7791L72.2094 69.1163L73.5467 68.6989C74.3396 68.4513 75.0539 68.8257 75.3014 69.6187L76.9588 74.9275C77.2063 75.7205 76.8319 76.4347 76.039 76.6823L74.7487 77.085L75.5858 79.7663L76.876 79.3635C77.669 79.116 78.8867 81.1032 79.1343 81.8962L80.3888 85.9147L75.08 87.5721L72.9192 80.6504L70.2849 81.4728L71.2059 84.4229C71.4535 85.2159 71.0791 85.9301 70.2861 86.1777L68.9488 86.5952L69.3516 87.8854C69.5992 88.6784 69.2248 89.3926 68.4318 89.6402L57.7604 92.9716C56.9674 93.2192 56.2532 92.8448 56.0056 92.0518L55.5881 90.7145L54.2509 91.132C53.4579 91.3796 52.7436 91.0052 52.4961 90.2122L51.5898 87.3092L50.2525 87.7266C49.4596 87.9742 48.7453 87.5998 48.4977 86.8068L31.0684 30.9768C30.8209 30.1839 30.6918 27.8568 31.4847 27.6092L32.822 27.1918L32.8355 27.1876ZM75.8999 62.0863L60.558 12.9428L65.8198 11.3001L81.5792 61.781L94.979 57.5978L79.2196 7.1169L84.5821 5.44278L99.922 54.5797C100.17 55.3726 99.7951 56.0869 99.0022 56.3344L97.6649 56.7519L99.339 62.1145L100.676 61.697C101.469 61.4495 102.183 61.8238 102.431 62.6168L107.105 77.589L101.743 79.2632L96.651 62.9536L83.2512 67.1368L88.3428 83.4464L83.081 85.089L78.4069 70.1168C78.1594 69.3238 78.5338 68.6096 79.3267 68.362L80.617 67.9592L78.9429 62.5966L77.6526 62.9994C76.8597 63.247 76.1454 62.8726 75.8979 62.0796L75.8999 62.0863ZM18.5635 113.409L19.9007 112.992L19.4833 111.655C19.2357 110.862 19.6101 110.147 20.4031 109.9L40.4556 103.64L42.1298 109.002L23.4279 114.841L26.7594 125.512L42.7934 120.507L44.4675 125.869L28.4335 130.875L32.602 144.227L27.2394 145.901L23.4884 133.886C23.2408 133.093 23.6152 132.379 24.4082 132.131L25.7455 131.714L24.0714 126.351L22.7341 126.769C21.9411 127.016 21.2269 126.642 20.9793 125.849L17.6479 115.178C17.4003 114.385 17.7747 113.67 18.5677 113.423L18.5635 113.409ZM53.9898 137.543L43.1416 102.794L48.5041 101.12L59.3524 135.869L53.9898 137.543ZM53.2791 106.989L51.1875 100.289L56.5501 98.6152L59.0613 106.659L60.3515 106.256C61.1445 106.009 61.8588 106.383 62.1063 107.176L63.3462 111.148L64.6835 110.73C65.4764 110.483 66.1907 110.857 66.4382 111.65L68.5298 118.35L69.8671 117.932C70.6601 117.685 71.3743 118.059 71.6219 118.852L72.8617 122.824L78.2243 121.15L76.9845 117.178C76.7369 116.385 77.1113 115.671 77.9043 115.423L79.1945 115.02L77.1029 108.321C76.8554 107.528 77.2298 106.813 78.0227 106.566L79.36 106.148L78.1201 102.177C77.8726 101.384 78.247 100.67 79.04 100.422L80.3772 100.005L77.8661 91.9607L83.2286 90.2865L85.3202 96.9864C85.5678 97.7794 85.1934 98.4936 84.4004 98.7412L83.0632 99.1587L84.303 103.13C84.5506 103.923 84.1762 104.637 83.3832 104.885L82.0459 105.302L84.1375 112.002C84.3851 112.795 84.0107 113.51 83.2177 113.757L81.8804 114.175L83.1203 118.146C83.3678 118.939 82.9955 119.66 82.2026 119.908L80.9123 120.31L82.1669 124.329C82.4144 125.122 82.04 125.836 81.2471 126.084L79.9098 126.501L80.7468 129.183L75.3843 130.857L74.5472 128.175L73.2099 128.593C72.417 128.84 71.7027 128.466 71.4551 127.673L70.2006 123.654L68.8633 124.072C68.0704 124.319 67.3561 123.945 67.1065 123.145L65.8666 119.174L64.5293 119.591C63.7363 119.839 63.0221 119.464 62.7745 118.672L60.6829 111.972L59.3927 112.374C58.5997 112.622 57.8855 112.248 57.6379 111.455L56.3981 107.483L55.0608 107.901C54.2678 108.148 53.5536 107.774 53.306 106.981L53.2791 106.989ZM88.1246 91.7007L89.4686 91.2811L89.0511 89.9438C88.8036 89.1509 89.178 88.4366 89.9709 88.1891L110.024 81.9289L111.698 87.2915L92.9823 93.1342L95.4767 101.124L111.511 96.1187L113.185 101.481L97.1509 106.487L100.482 117.158L119.198 111.316L120.872 116.678L100.819 122.938C100.026 123.186 99.3119 122.812 99.0644 122.019L98.6448 120.675L97.3008 121.094C96.5078 121.342 95.7936 120.967 95.546 120.174L92.2146 109.503C91.967 108.71 92.3414 107.996 93.1344 107.748L94.4784 107.329L92.8043 101.966L91.4603 102.386C90.6673 102.633 89.953 102.259 89.7055 101.466L87.2111 93.4756C86.9635 92.6827 87.3379 91.9684 88.1309 91.7209L88.1246 91.7007Z" fill="black"/>
<path d="M9.14778 82.918L-6.19204 33.7812L-0.930254 32.1385L14.8291 82.6194L28.2289 78.4362L12.4695 27.9553L17.8321 26.2812L33.1719 75.4181C33.4194 76.211 33.0451 76.9253 32.2521 77.1728L30.9148 77.5903L32.5889 82.9529L33.9262 82.5354C34.7192 82.2879 35.4334 82.6622 35.681 83.4552L40.3551 98.4274L34.9925 100.102L29.9009 83.792L16.5012 87.9753L21.5928 104.285L16.331 105.927L11.6569 90.9552C11.4093 90.1622 11.7837 89.448 12.5767 89.2004L13.8669 88.7976L12.1928 83.435L10.9025 83.8378C10.1096 84.0854 9.39533 83.711 9.14778 82.918ZM43.0431 97.5883L20.5201 25.442L25.8827 23.7679L48.4078 95.9209L43.0452 97.595L43.0431 97.5883ZM32.8355 27.1876L32.418 25.8503C32.1704 25.0573 32.5448 24.3431 33.3378 24.0955L35.3464 25.8284L34.2576 22.3407C34.01 21.5478 34.3844 20.8335 35.1774 20.586L51.1643 15.5951C51.9573 15.3475 52.6716 15.7219 52.9191 16.5149L53.3366 17.8522L54.6268 17.4494C55.4198 17.2018 56.1341 17.5762 56.3816 18.3692L56.7991 19.7065L58.1364 19.289C58.9293 19.0414 59.6436 19.4158 59.8912 20.2088L61.9681 26.8616L56.6592 28.519L55.0019 23.2101L53.7117 23.6129C52.9187 23.8605 52.2044 23.4861 51.9569 22.6931L51.5394 21.3558L38.1867 25.5244L38.6042 26.8616C38.8517 27.6546 38.4773 28.3689 37.6844 28.6164L36.3471 29.0339L53.4303 83.7551L54.7675 83.3376C55.5605 83.0901 56.2748 83.4645 56.5223 84.2574L56.9398 85.5947L64.9299 83.1003L64.5124 81.763C64.2649 80.9701 64.6393 80.2558 65.4322 80.0083L66.7695 79.5908L66.3667 78.3005C66.1192 77.5076 66.4936 76.7933 67.2865 76.5458L71.2581 75.3059L70.421 72.6246L62.3771 75.1358L60.703 69.7732L70.0371 66.8592C70.8301 66.6117 71.5444 66.9861 71.7919 67.7791L72.2094 69.1163L73.5467 68.6989C74.3396 68.4513 75.0539 68.8257 75.3014 69.6187L76.9588 74.9275C77.2063 75.7205 76.8319 76.4347 76.039 76.6823L74.7487 77.085L75.5858 79.7663L76.876 79.3635C77.669 79.116 78.8867 81.1032 79.1343 81.8962L80.3888 85.9147L75.08 87.5721L72.9192 80.6504L70.2849 81.4728L71.2059 84.4229C71.4535 85.2159 71.0791 85.9301 70.2861 86.1777L68.9488 86.5952L69.3516 87.8854C69.5992 88.6784 69.2248 89.3926 68.4318 89.6402L57.7604 92.9716C56.9674 93.2192 56.2532 92.8448 56.0056 92.0518L55.5881 90.7145L54.2509 91.132C53.4579 91.3796 52.7436 91.0052 52.4961 90.2122L51.5898 87.3092L50.2525 87.7266C49.4596 87.9742 48.7453 87.5998 48.4977 86.8068L31.0684 30.9768C30.8209 30.1839 30.6918 27.8568 31.4847 27.6092L32.822 27.1918L32.8355 27.1876ZM75.8999 62.0863L60.558 12.9428L65.8198 11.3001L81.5792 61.781L94.979 57.5978L79.2196 7.1169L84.5821 5.44278L99.922 54.5797C100.17 55.3726 99.7951 56.0869 99.0022 56.3344L97.6649 56.7519L99.339 62.1145L100.676 61.697C101.469 61.4495 102.183 61.8238 102.431 62.6168L107.105 77.589L101.743 79.2632L96.651 62.9536L83.2512 67.1368L88.3428 83.4464L83.081 85.089L78.4069 70.1168C78.1594 69.3238 78.5338 68.6096 79.3267 68.362L80.617 67.9592L78.9429 62.5966L77.6526 62.9994C76.8597 63.247 76.1454 62.8726 75.8979 62.0796L75.8999 62.0863ZM18.5635 113.409L19.9007 112.992L19.4833 111.655C19.2357 110.862 19.6101 110.147 20.4031 109.9L40.4556 103.64L42.1298 109.002L23.4279 114.841L26.7594 125.512L42.7934 120.507L44.4675 125.869L28.4335 130.875L32.602 144.227L27.2394 145.901L23.4884 133.886C23.2408 133.093 23.6152 132.379 24.4082 132.131L25.7455 131.714L24.0714 126.351L22.7341 126.769C21.9411 127.016 21.2269 126.642 20.9793 125.849L17.6479 115.178C17.4003 114.385 17.7747 113.67 18.5677 113.423L18.5635 113.409ZM53.9898 137.543L43.1416 102.794L48.5041 101.12L59.3524 135.869L53.9898 137.543ZM53.2791 106.989L51.1875 100.289L56.5501 98.6152L59.0613 106.659L60.3515 106.256C61.1445 106.009 61.8588 106.383 62.1063 107.176L63.3462 111.148L64.6835 110.73C65.4764 110.483 66.1907 110.857 66.4382 111.65L68.5298 118.35L69.8671 117.932C70.6601 117.685 71.3743 118.059 71.6219 118.852L72.8617 122.824L78.2243 121.15L76.9845 117.178C76.7369 116.385 77.1113 115.671 77.9043 115.423L79.1945 115.02L77.1029 108.321C76.8554 107.528 77.2298 106.813 78.0227 106.566L79.36 106.148L78.1201 102.177C77.8726 101.384 78.247 100.67 79.04 100.422L80.3772 100.005L77.8661 91.9607L83.2286 90.2865L85.3202 96.9864C85.5678 97.7794 85.1934 98.4936 84.4004 98.7412L83.0632 99.1587L84.303 103.13C84.5506 103.923 84.1762 104.637 83.3832 104.885L82.0459 105.302L84.1375 112.002C84.3851 112.795 84.0107 113.51 83.2177 113.757L81.8804 114.175L83.1203 118.146C83.3678 118.939 82.9955 119.66 82.2026 119.908L80.9123 120.31L82.1669 124.329C82.4144 125.122 82.04 125.836 81.2471 126.084L79.9098 126.501L80.7468 129.183L75.3843 130.857L74.5472 128.175L73.2099 128.593C72.417 128.84 71.7027 128.466 71.4551 127.673L70.2006 123.654L68.8633 124.072C68.0704 124.319 67.3561 123.945 67.1065 123.145L65.8666 119.174L64.5293 119.591C63.7363 119.839 63.0221 119.464 62.7745 118.672L60.6829 111.972L59.3927 112.374C58.5997 112.622 57.8855 112.248 57.6379 111.455L56.3981 107.483L55.0608 107.901C54.2678 108.148 53.5536 107.774 53.306 106.981L53.2791 106.989ZM88.1246 91.7007L89.4686 91.2811L89.0511 89.9438C88.8036 89.1509 89.178 88.4366 89.9709 88.1891L110.024 81.9289L111.698 87.2915L92.9823 93.1342L95.4767 101.124L111.511 96.1187L113.185 101.481L97.1509 106.487L100.482 117.158L119.198 111.316L120.872 116.678L100.819 122.938C100.026 123.186 99.3119 122.812 99.0644 122.019L98.6448 120.675L97.3008 121.094C96.5078 121.342 95.7936 120.967 95.546 120.174L92.2146 109.503C91.967 108.71 92.3414 107.996 93.1344 107.748L94.4784 107.329L92.8043 101.966L91.4603 102.386C90.6673 102.633 89.953 102.259 89.7055 101.466L87.2111 93.4756C86.9635 92.6827 87.3379 91.9684 88.1309 91.7209L88.1246 91.7007Z" fill="black" fill-opacity="0.2"/>
</g>
<defs>
<clipPath id="clip0_5842_11099">
<rect width="105.134" height="124.585" fill="white" transform="translate(-12.2002 31.3789) rotate(-17.3376)"/>
</clipPath>
</defs>
</svg>
