<svg width="103" height="156" viewBox="0 0 103 156" fill="none" xmlns="http://www.w3.org/2000/svg">
<g clip-path="url(#clip0_5842_11360)">
<path d="M58.405 99.49V108.33C58.405 111.93 60.725 114.99 63.945 116.11V124.91C63.945 128.51 66.265 131.57 69.485 132.69V135.99C69.485 139.72 71.965 142.87 75.365 143.89C76.155 146.54 78.235 148.62 80.875 149.42C81.895 152.81 85.045 155.28 88.765 155.28H94.265C98.815 155.28 102.505 151.59 102.505 147.04V141.54C102.505 137.95 100.205 134.9 97.005 133.77V130.46C97.005 126.87 94.705 123.82 91.505 122.69V113.84C91.505 110.24 89.185 107.18 85.965 106.06V49.72C89.185 48.6 91.505 45.54 91.505 41.94V33.13C94.705 32 97.005 28.95 97.005 25.36V22.05C100.205 20.92 102.505 17.87 102.505 14.28V8.74C102.505 4.19 98.815 0.5 94.265 0.5H88.765C85.035 0.5 81.875 2.99 80.865 6.39C78.225 7.19 76.155 9.28 75.365 11.92C71.965 12.93 69.485 16.08 69.485 19.82V23.12C66.265 24.24 63.945 27.3 63.945 30.9V39.67C60.725 40.79 58.405 43.85 58.405 47.45V56.29C55.185 57.41 52.865 60.47 52.865 64.07V91.73C52.865 95.33 55.185 98.39 58.405 99.51V99.49Z" fill="black"/>
<path d="M58.405 99.49V108.33C58.405 111.93 60.725 114.99 63.945 116.11V124.91C63.945 128.51 66.265 131.57 69.485 132.69V135.99C69.485 139.72 71.965 142.87 75.365 143.89C76.155 146.54 78.235 148.62 80.875 149.42C81.895 152.81 85.045 155.28 88.765 155.28H94.265C98.815 155.28 102.505 151.59 102.505 147.04V141.54C102.505 137.95 100.205 134.9 97.005 133.77V130.46C97.005 126.87 94.705 123.82 91.505 122.69V113.84C91.505 110.24 89.185 107.18 85.965 106.06V49.72C89.185 48.6 91.505 45.54 91.505 41.94V33.13C94.705 32 97.005 28.95 97.005 25.36V22.05C100.205 20.92 102.505 17.87 102.505 14.28V8.74C102.505 4.19 98.815 0.5 94.265 0.5H88.765C85.035 0.5 81.875 2.99 80.865 6.39C78.225 7.19 76.155 9.28 75.365 11.92C71.965 12.93 69.485 16.08 69.485 19.82V23.12C66.265 24.24 63.945 27.3 63.945 30.9V39.67C60.725 40.79 58.405 43.85 58.405 47.45V56.29C55.185 57.41 52.865 60.47 52.865 64.07V91.73C52.865 95.33 55.185 98.39 58.405 99.51V99.49Z" fill="black" fill-opacity="0.2"/>
<path d="M25.3051 88.9805H8.72511C4.17511 88.9805 0.485107 92.6705 0.485107 97.2205V113.8C0.485107 118.35 4.17511 122.04 8.72511 122.04H25.3051C29.8551 122.04 33.5451 118.35 33.5451 113.8V97.2205C33.5451 92.6705 29.8551 88.9805 25.3051 88.9805ZM17.0651 105.56H16.9651V105.46H17.0651V105.56Z" fill="black"/>
<path d="M25.3051 88.9805H8.72511C4.17511 88.9805 0.485107 92.6705 0.485107 97.2205V113.8C0.485107 118.35 4.17511 122.04 8.72511 122.04H25.3051C29.8551 122.04 33.5451 118.35 33.5451 113.8V97.2205C33.5451 92.6705 29.8551 88.9805 25.3051 88.9805ZM17.0651 105.56H16.9651V105.46H17.0651V105.56Z" fill="black" fill-opacity="0.2"/>
<path d="M25.3051 44.71H8.72511C4.17511 44.71 0.485107 48.4 0.485107 52.95V69.56C0.485107 74.11 4.17511 77.8 8.72511 77.8H25.3051C29.8551 77.8 33.5451 74.11 33.5451 69.56V52.95C33.5451 48.4 29.8551 44.71 25.3051 44.71ZM17.0651 61.32H16.9651V61.19H17.0651V61.32Z" fill="black"/>
<path d="M25.3051 44.71H8.72511C4.17511 44.71 0.485107 48.4 0.485107 52.95V69.56C0.485107 74.11 4.17511 77.8 8.72511 77.8H25.3051C29.8551 77.8 33.5451 74.11 33.5451 69.56V52.95C33.5451 48.4 29.8551 44.71 25.3051 44.71ZM17.0651 61.32H16.9651V61.19H17.0651V61.32Z" fill="black" fill-opacity="0.2"/>
<path d="M87.9551 141.5H93.4551V147H87.9551V141.5ZM82.4551 14.2597H87.9551V25.3397H82.4551V41.9197H76.9151V113.81H82.4551V130.42H87.9551V141.5H82.4551V135.96H76.9151V124.88H71.3751V108.3H65.8351V91.6897H60.2951V64.0297H65.8351V47.4197H71.3751V30.8697H76.9151V19.7897H82.4551V14.2497V14.2597ZM87.9551 8.71973H93.4551V14.2597H87.9551V8.71973ZM25.3151 69.5697H8.7251V52.9597H25.3051V69.5697H25.3151ZM25.3151 113.81H8.7251V97.2297H25.3051V113.81H25.3151Z" fill="#0064FF"/>
</g>
<defs>
<clipPath id="clip0_5842_11360">
<rect width="102.03" height="154.77" fill="white" transform="translate(0.485107 0.5)"/>
</clipPath>
</defs>
</svg>
