<svg width="195" height="109" viewBox="0 0 195 109" fill="none" xmlns="http://www.w3.org/2000/svg">
<g clip-path="url(#clip0_5842_11274)">
<path d="M183.71 17.2179L182.197 12.6166C181.666 11.0024 180.534 9.49697 178.808 8.62527C178.085 8.25998 177.33 8.04897 176.583 7.96564C176.066 7.41591 175.457 6.93785 174.732 6.56638C174.033 6.21355 173.313 6.00474 172.591 5.91328C172.07 5.35118 171.451 4.86279 170.711 4.4892C168.985 3.61749 167.108 3.59751 165.487 4.13032L150.156 9.17166C148.535 9.70447 147.036 10.8348 146.164 12.5606C145.791 13.3003 145.582 14.0612 145.496 14.8226C144.969 15.3248 144.514 15.92 144.161 16.6186C143.796 17.3418 143.585 18.0965 143.502 18.8435C143.429 18.9152 143.349 18.9828 143.276 19.0546C143.175 19.0398 143.068 19.027 142.97 19.0184C142.453 18.4686 141.842 17.9844 141.118 17.6191C140.42 17.2663 139.7 17.0575 138.978 16.966C138.457 16.4039 137.837 15.9155 137.098 15.5419C135.372 14.6702 133.494 14.6502 131.874 15.183L116.542 20.2244C114.928 20.7552 113.423 21.8875 112.551 23.6134C112.178 24.353 111.969 25.1139 111.883 25.8753C111.356 26.3775 110.901 26.9727 110.548 27.6713C110.183 28.3945 109.978 29.1472 109.888 29.8962C109.816 29.968 109.735 30.0356 109.663 30.1073C109.562 30.0925 109.455 30.0797 109.356 30.0711C108.84 29.5214 108.228 29.0371 107.505 28.6718C106.807 28.319 106.087 28.1102 105.365 28.0187C104.844 27.4566 104.224 26.9682 103.484 26.5946C101.759 25.7229 99.8812 25.7029 98.2608 26.2358L82.9292 31.2771C81.315 31.8079 79.8096 32.9403 78.9379 34.6661C78.5643 35.4057 78.3553 36.1666 78.2698 36.928C78.2698 36.928 78.2575 36.9321 78.2595 36.9383C77.0116 34.9774 74.5552 34.0306 72.2484 34.7892L49.3036 42.3339C47.8687 42.8057 46.5226 43.7555 45.6315 45.1724C44.4358 44.5581 43.0076 44.4041 41.6285 44.8576L35.549 46.8567C33.1556 47.6437 31.7172 50.0013 32.0018 52.4092C31.6316 52.8256 31.2983 53.2916 31.0326 53.8175C30.6673 54.5407 30.4563 55.2954 30.373 56.0424C29.8232 56.559 29.339 57.1706 28.9737 57.8938C28.102 59.6196 28.082 61.4971 28.6148 63.1175L28.7938 63.6617C28.4669 64.0433 28.1749 64.4683 27.9321 64.9388C27.4575 64.7042 26.9703 64.5354 26.4807 64.4223L26.3018 63.878C25.771 62.2639 24.6386 60.7584 22.9128 59.8867C22.1896 59.5214 21.4349 59.3104 20.6879 59.2271C20.1713 58.6774 19.5598 58.1931 18.8366 57.8278C18.3106 57.5622 17.7658 57.3849 17.2207 57.2695C16.0207 55.1626 13.4639 54.1187 11.0704 54.9057L4.9353 56.9231C2.21408 57.8179 0.728036 60.76 1.6269 63.4936L3.13991 68.0949C3.67068 69.7091 4.80306 71.2145 6.52889 72.0862C7.25209 72.4515 8.0068 72.6625 8.7538 72.7459C9.27037 73.2956 9.88192 73.7798 10.6051 74.1451C11.0982 74.3942 11.5999 74.565 12.1038 74.6803L12.2827 75.2246C12.8135 76.8387 13.9459 78.3442 15.6717 79.2159C16.3949 79.5812 17.1496 79.7922 17.8966 79.8755C18.4132 80.4253 19.0248 80.9095 19.748 81.2748C20.4712 81.6401 21.2259 81.8511 21.9729 81.9344C22.4894 82.4841 23.101 82.9684 23.8242 83.3337C24.2926 83.5703 24.7737 83.741 25.257 83.8562L29.9832 98.2292C30.882 100.963 33.8241 102.449 36.5577 101.55L42.6928 99.5327C45.4264 98.6338 46.9125 95.6917 46.0136 92.9581L45.6943 91.9871L55.231 88.8513C55.5717 89.1162 55.9412 89.3647 56.3501 89.5661C57.0733 89.9314 57.828 90.1424 58.575 90.2257C59.0916 90.7755 59.7031 91.2597 60.4263 91.625C62.1522 92.4967 64.0297 92.5167 65.65 91.9839L88.5949 84.4391C90.9017 83.6806 92.3169 81.4608 92.1575 79.142C92.1575 79.142 92.1699 79.1379 92.1719 79.1441C92.6926 79.7062 93.3123 80.1946 94.052 80.5682C95.7778 81.4399 97.6553 81.4599 99.2757 80.9271L114.607 75.8857C116.221 75.355 117.727 74.2226 118.599 72.4968C118.972 71.7571 119.181 70.9962 119.267 70.2348C119.794 69.7326 120.249 69.1374 120.602 68.4388C120.805 68.0361 120.955 67.6168 121.072 67.2014L122.538 66.7194C122.872 66.9863 123.242 67.2349 123.651 67.4363C124.349 67.7891 125.069 67.9979 125.791 68.0894C126.312 68.6515 126.932 69.1399 127.671 69.5134C129.397 70.3851 131.275 70.4051 132.895 69.8723L148.227 64.831C149.841 64.3002 151.346 63.1678 152.218 61.442C152.592 60.7024 152.801 59.9415 152.886 59.1801C153.413 58.6778 153.868 58.0826 154.221 57.3841C154.425 56.9814 154.575 56.562 154.692 56.1466L156.157 55.6646C156.492 55.9316 156.861 56.1801 157.27 56.3815C157.969 56.7343 158.689 56.9431 159.411 57.0346C159.931 57.5967 160.551 58.0851 161.291 58.4587C163.017 59.3304 164.894 59.3504 166.515 58.8176L181.846 53.7762C183.46 53.2455 184.966 52.1131 185.837 50.3873C186.211 49.6476 186.42 48.8867 186.505 48.1253C187.033 47.6231 187.488 47.0279 187.841 46.3293C188.206 45.6061 188.417 44.8514 188.5 44.1044C189.05 43.5878 189.534 42.9763 189.9 42.2531C190.771 40.5273 190.791 38.6497 190.258 37.0294L187.253 27.8886C186.722 26.2744 185.59 24.7689 183.864 23.8972C183.141 23.5319 182.386 23.3209 181.639 23.2376C181.635 23.2252 181.627 23.2211 181.616 23.2107C183.561 21.9546 184.499 19.5146 183.743 17.214L183.71 17.2179Z" fill="black"/>
<path d="M183.71 17.2179L182.197 12.6166C181.666 11.0024 180.534 9.49697 178.808 8.62527C178.085 8.25998 177.33 8.04897 176.583 7.96564C176.066 7.41591 175.457 6.93785 174.732 6.56638C174.033 6.21355 173.313 6.00474 172.591 5.91328C172.07 5.35118 171.451 4.86279 170.711 4.4892C168.985 3.61749 167.108 3.59751 165.487 4.13032L150.156 9.17166C148.535 9.70447 147.036 10.8348 146.164 12.5606C145.791 13.3003 145.582 14.0612 145.496 14.8226C144.969 15.3248 144.514 15.92 144.161 16.6186C143.796 17.3418 143.585 18.0965 143.502 18.8435C143.429 18.9152 143.349 18.9828 143.276 19.0546C143.175 19.0398 143.068 19.027 142.97 19.0184C142.453 18.4686 141.842 17.9844 141.118 17.6191C140.42 17.2663 139.7 17.0575 138.978 16.966C138.457 16.4039 137.837 15.9155 137.098 15.5419C135.372 14.6702 133.494 14.6502 131.874 15.183L116.542 20.2244C114.928 20.7552 113.423 21.8875 112.551 23.6134C112.178 24.353 111.969 25.1139 111.883 25.8753C111.356 26.3775 110.901 26.9727 110.548 27.6713C110.183 28.3945 109.978 29.1472 109.888 29.8962C109.816 29.968 109.735 30.0356 109.663 30.1073C109.562 30.0925 109.455 30.0797 109.356 30.0711C108.84 29.5214 108.228 29.0371 107.505 28.6718C106.807 28.319 106.087 28.1102 105.365 28.0187C104.844 27.4566 104.224 26.9682 103.484 26.5946C101.759 25.7229 99.8812 25.7029 98.2608 26.2358L82.9292 31.2771C81.315 31.8079 79.8096 32.9403 78.9379 34.6661C78.5643 35.4057 78.3553 36.1666 78.2698 36.928C78.2698 36.928 78.2575 36.9321 78.2595 36.9383C77.0116 34.9774 74.5552 34.0306 72.2484 34.7892L49.3036 42.3339C47.8687 42.8057 46.5226 43.7555 45.6315 45.1724C44.4358 44.5581 43.0076 44.4041 41.6285 44.8576L35.549 46.8567C33.1556 47.6437 31.7172 50.0013 32.0018 52.4092C31.6316 52.8256 31.2983 53.2916 31.0326 53.8175C30.6673 54.5407 30.4563 55.2954 30.373 56.0424C29.8232 56.559 29.339 57.1706 28.9737 57.8938C28.102 59.6196 28.082 61.4971 28.6148 63.1175L28.7938 63.6617C28.4669 64.0433 28.1749 64.4683 27.9321 64.9388C27.4575 64.7042 26.9703 64.5354 26.4807 64.4223L26.3018 63.878C25.771 62.2639 24.6386 60.7584 22.9128 59.8867C22.1896 59.5214 21.4349 59.3104 20.6879 59.2271C20.1713 58.6774 19.5598 58.1931 18.8366 57.8278C18.3106 57.5622 17.7658 57.3849 17.2207 57.2695C16.0207 55.1626 13.4639 54.1187 11.0704 54.9057L4.9353 56.9231C2.21408 57.8179 0.728036 60.76 1.6269 63.4936L3.13991 68.0949C3.67068 69.7091 4.80306 71.2145 6.52889 72.0862C7.25209 72.4515 8.0068 72.6625 8.7538 72.7459C9.27037 73.2956 9.88192 73.7798 10.6051 74.1451C11.0982 74.3942 11.5999 74.565 12.1038 74.6803L12.2827 75.2246C12.8135 76.8387 13.9459 78.3442 15.6717 79.2159C16.3949 79.5812 17.1496 79.7922 17.8966 79.8755C18.4132 80.4253 19.0248 80.9095 19.748 81.2748C20.4712 81.6401 21.2259 81.8511 21.9729 81.9344C22.4894 82.4841 23.101 82.9684 23.8242 83.3337C24.2926 83.5703 24.7737 83.741 25.257 83.8562L29.9832 98.2292C30.882 100.963 33.8241 102.449 36.5577 101.55L42.6928 99.5327C45.4264 98.6338 46.9125 95.6917 46.0136 92.9581L45.6943 91.9871L55.231 88.8513C55.5717 89.1162 55.9412 89.3647 56.3501 89.5661C57.0733 89.9314 57.828 90.1424 58.575 90.2257C59.0916 90.7755 59.7031 91.2597 60.4263 91.625C62.1522 92.4967 64.0297 92.5167 65.65 91.9839L88.5949 84.4391C90.9017 83.6806 92.3169 81.4608 92.1575 79.142C92.1575 79.142 92.1699 79.1379 92.1719 79.1441C92.6926 79.7062 93.3123 80.1946 94.052 80.5682C95.7778 81.4399 97.6553 81.4599 99.2757 80.9271L114.607 75.8857C116.221 75.355 117.727 74.2226 118.599 72.4968C118.972 71.7571 119.181 70.9962 119.267 70.2348C119.794 69.7326 120.249 69.1374 120.602 68.4388C120.805 68.0361 120.955 67.6168 121.072 67.2014L122.538 66.7194C122.872 66.9863 123.242 67.2349 123.651 67.4363C124.349 67.7891 125.069 67.9979 125.791 68.0894C126.312 68.6515 126.932 69.1399 127.671 69.5134C129.397 70.3851 131.275 70.4051 132.895 69.8723L148.227 64.831C149.841 64.3002 151.346 63.1678 152.218 61.442C152.592 60.7024 152.801 59.9415 152.886 59.1801C153.413 58.6778 153.868 58.0826 154.221 57.3841C154.425 56.9814 154.575 56.562 154.692 56.1466L156.157 55.6646C156.492 55.9316 156.861 56.1801 157.27 56.3815C157.969 56.7343 158.689 56.9431 159.411 57.0346C159.931 57.5967 160.551 58.0851 161.291 58.4587C163.017 59.3304 164.894 59.3504 166.515 58.8176L181.846 53.7762C183.46 53.2455 184.966 52.1131 185.837 50.3873C186.211 49.6476 186.42 48.8867 186.505 48.1253C187.033 47.6231 187.488 47.0279 187.841 46.3293C188.206 45.6061 188.417 44.8514 188.5 44.1044C189.05 43.5878 189.534 42.9763 189.9 42.2531C190.771 40.5273 190.791 38.6497 190.258 37.0294L187.253 27.8886C186.722 26.2744 185.59 24.7689 183.864 23.8972C183.141 23.5319 182.386 23.3209 181.639 23.2376C181.635 23.2252 181.627 23.2211 181.616 23.2107C183.561 21.9546 184.499 19.5146 183.743 17.214L183.71 17.2179Z" fill="black" fill-opacity="0.2"/>
<path d="M13.7183 62.9167L15.2521 62.4124C16.1612 62.1135 16.9913 62.5327 17.2902 63.4418L17.7946 64.9756L19.3283 64.4713C20.2375 64.1723 21.0675 64.5916 21.3665 65.5007L22.8612 70.0464L24.3949 69.5421C25.3041 69.2431 26.1341 69.6624 26.4331 70.5715L26.9374 72.1053L33.0169 70.1062L32.5125 68.5725C32.2136 67.6633 32.6328 66.8333 33.542 66.5343L35.0757 66.03L33.581 61.4843C33.2821 60.5752 33.7013 59.7452 34.6105 59.4462L36.1442 58.9419L35.6399 57.4081C35.341 56.499 35.7602 55.6689 36.6693 55.37L38.2031 54.8656L37.1945 51.7981L43.2739 49.799L44.7869 54.4004C45.0859 55.3095 44.6666 56.1395 43.7575 56.4385L42.2794 56.9245L42.7837 58.4583C43.0826 59.3674 42.6634 60.1975 41.7543 60.4964L40.2205 61.0008L41.7152 65.5464C42.0141 66.4556 41.5949 67.2856 40.6857 67.5845L39.152 68.0889L39.6563 69.6227C39.9552 70.5318 39.536 71.3618 38.6269 71.6608L37.0931 72.1651L37.5974 73.6989C37.8964 74.608 37.4771 75.4381 36.568 75.737L35.0342 76.2414L41.0659 94.5849L34.9308 96.6022L28.8991 78.2587L27.421 78.7447C26.5118 79.0437 25.6818 78.6244 25.3829 77.7153L24.8785 76.1815L23.3447 76.6859C22.4356 76.9848 21.6056 76.5655 21.3066 75.6564L20.8023 74.1226L19.2685 74.627C18.3594 74.9259 17.5293 74.5067 17.2304 73.5975L15.7357 69.0519L14.2019 69.5562C13.2928 69.8551 12.4627 69.4359 12.1638 68.5268L11.6595 66.993L10.1257 67.4973C9.21654 67.7963 8.3865 67.377 8.08756 66.4679L6.57454 61.8665L12.7097 59.8492L13.7183 62.9167ZM48.8839 51.3536L50.4177 50.8492L49.9134 49.3155C49.6144 48.4063 50.0337 47.5763 50.9428 47.2774L73.8876 39.7326L75.905 45.8677L54.4939 52.9081L57.4996 62.049L75.8431 56.0172L77.8605 62.1524L59.517 68.1841L63.5313 80.3925L84.9424 73.3521L86.9597 79.4872L64.0149 87.0319C63.1058 87.3308 62.2757 86.9116 61.9768 86.0025L61.4724 84.4687L59.9387 84.973C59.0295 85.272 58.1995 84.8527 57.9006 83.9436L53.8862 71.7352C53.5872 70.8261 54.0065 69.996 54.9156 69.6971L56.4494 69.1927L54.4321 63.0576L52.8983 63.562C51.9891 63.8609 51.1591 63.4417 50.8602 62.5325L47.8545 53.3917C47.5555 52.4826 47.9748 51.6525 48.8839 51.3536ZM85.0458 52.9912L83.512 53.4956C82.6029 53.7945 81.7728 53.3752 81.4739 52.4661L79.4748 46.3867C79.1759 45.4775 79.5951 44.6475 80.5043 44.3485L82.0381 43.8442L81.5337 42.3104C81.2348 41.4013 81.654 40.5713 82.5632 40.2723L84.0413 39.7863L83.5369 38.2525C83.238 37.3434 83.6572 36.5133 84.5664 36.2144L99.898 31.173C100.807 30.8741 101.637 31.2933 101.936 32.2025L102.44 33.7363L103.919 33.2502C104.828 32.9513 105.658 33.3705 105.957 34.2797L106.461 35.8134L107.995 35.3091C108.904 35.0102 109.734 35.4294 110.033 36.3385L111.546 40.9399L105.411 42.9572L104.402 39.8897L102.924 40.3757C102.015 40.6747 101.185 40.2554 100.886 39.3463L100.382 37.8125L88.1113 41.8472L88.6157 43.381C88.9146 44.2901 88.4954 45.1201 87.5862 45.4191L86.0524 45.9234L87.0428 48.9353L88.5766 48.431C89.4857 48.132 90.3158 48.5513 90.6147 49.4604L91.119 50.9942L104.923 46.4552C105.832 46.1562 106.662 46.5755 106.961 47.4846L107.466 49.0184L108.944 48.5323C109.853 48.2334 110.683 48.6527 110.982 49.5618L111.486 51.0956L113.02 50.5912C113.929 50.2923 114.759 50.7115 115.058 51.6207L118.064 60.7615C118.363 61.6706 117.943 62.5007 117.034 62.7996L115.5 63.304L116.005 64.8377C116.304 65.7469 115.884 66.5769 114.975 66.8758L113.497 67.3619L114.002 68.8957C114.301 69.8048 113.881 70.6348 112.972 70.9338L97.6405 75.9751C96.7314 76.2741 95.9013 75.8548 95.6024 74.9457L95.0981 73.4119L93.62 73.8979C92.7108 74.1969 91.8808 73.7776 91.5818 72.8685L91.0775 71.3347L89.5437 71.8391C88.6346 72.138 87.8045 71.7187 87.5056 70.8096L86.0109 66.2639L92.0842 64.2669L93.0745 67.2788L94.6083 66.7745C95.5175 66.4755 96.3475 66.8948 96.6464 67.8039L97.1508 69.3377L109.421 65.303L108.917 63.7692C108.618 62.8601 109.037 62.03 109.946 61.7311L111.48 61.2268L109.481 55.1473L108.003 55.6333C107.094 55.9323 106.264 55.513 105.965 54.6039L105.46 53.0701L91.6006 57.6275C90.6915 57.9264 89.8614 57.5072 89.5625 56.598L89.0581 55.0643L87.58 55.5503C86.6709 55.8492 85.8408 55.43 85.5419 54.5208L85.0376 52.9871L85.0458 52.9912ZM118.659 41.9385L117.125 42.4428C116.216 42.7418 115.386 42.3225 115.087 41.4134L113.088 35.3339C112.789 34.4248 113.208 33.5948 114.118 33.2958L115.651 32.7915L115.147 31.2577C114.848 30.3486 115.267 29.5185 116.176 29.2196L117.655 28.7336L117.15 27.1998C116.851 26.2906 117.27 25.4606 118.18 25.1617L133.511 20.1203C134.42 19.8214 135.25 20.2406 135.549 21.1498L136.054 22.6835L137.532 22.1975C138.441 21.8986 139.271 22.3178 139.57 23.2269L140.074 24.7607L141.608 24.2564C142.517 23.9574 143.347 24.3767 143.646 25.2858L145.159 29.8872L139.024 31.9045L138.015 28.837L136.537 29.323C135.628 29.6219 134.798 29.2027 134.499 28.2935L133.995 26.7598L121.725 30.7945L122.229 32.3283C122.528 33.2374 122.109 34.0674 121.199 34.3664L119.666 34.8707L120.656 37.8826L122.19 37.3783C123.099 37.0793 123.929 37.4986 124.228 38.4077L124.732 39.9415L138.536 35.4024C139.445 35.1035 140.275 35.5228 140.574 36.4319L141.079 37.9657L142.557 37.4796C143.466 37.1807 144.296 37.5999 144.595 38.5091L145.099 40.0428L146.633 39.5385C147.542 39.2396 148.372 39.6588 148.671 40.568L151.677 49.7088C151.976 50.6179 151.557 51.448 150.647 51.7469L149.114 52.2512L149.618 53.785C149.917 54.6941 149.498 55.5242 148.589 55.8231L147.11 56.3092L147.615 57.8429C147.914 58.7521 147.494 59.5821 146.585 59.8811L131.254 64.9224C130.345 65.2213 129.515 64.8021 129.216 63.893L128.711 62.3592L127.233 62.8452C126.324 63.1442 125.494 62.7249 125.195 61.8158L124.691 60.282L123.157 60.7863C122.248 61.0853 121.418 60.666 121.119 59.7569L119.624 55.2112L125.697 53.2142L126.688 56.2261L128.222 55.7218C129.131 55.4228 129.961 55.8421 130.26 56.7512L130.764 58.285L143.034 54.2503L142.53 52.7165C142.231 51.8074 142.65 50.9773 143.559 50.6784L145.093 50.174L143.094 44.0946L141.616 44.5806C140.707 44.8796 139.877 44.4603 139.578 43.5512L139.074 42.0174L125.214 46.5748C124.305 46.8737 123.475 46.4544 123.176 45.5453L122.671 44.0115L121.193 44.4976C120.284 44.7965 119.454 44.3773 119.155 43.4681L118.651 41.9343L118.659 41.9385ZM152.266 30.8878L150.732 31.3921C149.823 31.6911 148.993 31.2718 148.694 30.3627L146.695 24.2833C146.396 23.3741 146.815 22.5441 147.725 22.2451L149.258 21.7408L148.754 20.207C148.455 19.2979 148.874 18.4678 149.783 18.1689L151.262 17.6829L150.757 16.1491C150.458 15.24 150.878 14.4099 151.787 14.111L167.118 9.06963C168.027 8.77069 168.857 9.18994 169.156 10.0991L169.661 11.6328L171.139 11.1468C172.048 10.8479 172.878 11.2671 173.177 12.1763L173.681 13.71L175.215 13.2057C176.124 12.9068 176.954 13.326 177.253 14.2351L178.766 18.8365L172.631 20.8538L171.622 17.7863L170.144 18.2723C169.235 18.5712 168.405 18.152 168.106 17.2429L167.602 15.7091L155.332 19.7438L155.836 21.2776C156.135 22.1867 155.716 23.0167 154.807 23.3157L153.273 23.82L154.263 26.8319L155.797 26.3276C156.706 26.0286 157.536 26.4479 157.835 27.357L158.339 28.8908L172.143 24.3518C173.052 24.0528 173.883 24.4721 174.181 25.3812L174.686 26.915L176.164 26.4289C177.073 26.13 177.903 26.5492 178.202 27.4584L178.706 28.9922L180.24 28.4878C181.149 28.1889 181.979 28.6081 182.278 29.5173L185.284 38.6581C185.583 39.5672 185.164 40.3973 184.255 40.6962L182.721 41.2005L183.225 42.7343C183.524 43.6435 183.105 44.4735 182.196 44.7724L180.718 45.2585L181.222 46.7923C181.521 47.7014 181.102 48.5314 180.192 48.8304L164.861 53.8717C163.952 54.1707 163.122 53.7514 162.823 52.8423L162.318 51.3085L160.84 51.7945C159.931 52.0935 159.101 51.6742 158.802 50.7651L158.298 49.2313L156.764 49.7356C155.855 50.0346 155.025 49.6153 154.726 48.7062L153.231 44.1605L159.311 42.1615L160.301 45.1734L161.835 44.669C162.744 44.3701 163.574 44.7893 163.873 45.6985L164.377 47.2323L176.647 43.1976L176.143 41.6638C175.844 40.7546 176.263 39.9246 177.173 39.6257L178.706 39.1213L176.707 33.0419L175.229 33.5279C174.32 33.8269 173.49 33.4076 173.191 32.4985L172.687 30.9647L158.827 35.522C157.918 35.821 157.088 35.4017 156.789 34.4926L156.285 32.9588L154.807 33.4448C153.897 33.7438 153.067 33.3245 152.768 32.4154L152.264 30.8816L152.266 30.8878Z" fill="#0064FF"/>
</g>
<defs>
<clipPath id="clip0_5842_11274">
<rect width="187.427" height="52.2652" fill="white" transform="translate(0 58.5459) rotate(-18.2019)"/>
</clipPath>
</defs>
</svg>
